<?xml version="1.0" standalone="no"?>
<!DOCTYPE svg PUBLIC "-//W3C//DTD SVG 1.0//EN" "http://www.w3.org/TR/2001/REC-SVG-20010904/DTD/svg10.dtd">
<svg xmlns="http://www.w3.org/2000/svg" xmlns:xlink="http://www.w3.org/1999/xlink" id="body_1" width="68" height="51">

<g transform="matrix(0.15111111 0 0 0.14956012 0 0)">
	<g transform="matrix(1.25 0 -0 -1.25 -54.6765 382.42035)">
        <path d="M61.92532 305.93628C 51.881878 305.93628 43.7412 297.79395 43.7412 287.75275L43.7412 287.75275L43.7412 51.333115C 43.7412 41.289673 51.881878 33.147335 61.92532 33.147335L61.92532 33.147335L385.55563 33.147335C 395.59888 33.147335 403.7412 41.289673 403.7412 51.333115L403.7412 51.333115L403.7412 287.75275C 403.7412 297.79395 395.59888 305.93628 385.55563 305.93628L385.55563 305.93628L61.925323 305.93628" stroke="none" fill="#D52B1E" fill-rule="nonzero" />
        <path d="M195.96681 182.84872C 200.86533 219.07034 217.01317 284.39954 247.80983 284.39954C 283.76312 284.39954 326.007 163.62872 325.99673 63.642685L325.99673 63.642685L292.84155 63.642685C 292.84155 168.51291 267.1548 263.00415 248.6722 263.00824C 229.39218 263.01025 212.49545 198.73398 212.49545 76.27385L212.49545 76.27385L179.38513 76.27385C 179.38513 198.73396 162.59082 263.00824 143.20796 263.00824C 124.75897 263.00824 99.09084 168.49527 99.09084 63.642685L99.09084 63.642685L65.93587 63.642685C 65.966995 163.71518 108.103745 284.41183 144.12175 284.39954C 174.87561 284.38934 191.02898 219.07854 195.96683 182.84872" stroke="none" fill="#FDC82F" fill-rule="nonzero" />
        <path d="M174.29774 103.82465L327.0185 103.82465L327.0185 142.4183L174.29776 142.4183L174.29776 103.82465L174.29774 103.82465z" stroke="none" fill="#D52B1E" fill-rule="nonzero" />
        <path d="M311.61298 107.69733L321.2228 107.69733L321.2228 139.31294L311.61298 139.31294L311.61298 107.69733z" stroke="none" fill="#FFFFFF" fill-rule="nonzero" />
        <path d="M356.56277 139.31294L363.10736 139.31294L360.88486 130.697L356.12646 130.697L356.56277 139.31294" stroke="none" fill="#FFFFFF" fill-rule="nonzero" />
        <path d="M374.38373 134.62971C 380.77673 134.62971 386.7826 133.01662 386.81128 126.74097L386.81128 126.74097L377.6857 126.74097C 377.6857 128.90305 376.4239 129.88565 374.29358 129.88565C 373.02972 129.88565 371.32138 129.36066 371.32138 127.37945C 371.3234 124.09179 376.52222 124.74932 380.9365 123.43876C 384.90216 122.26258 387.6511 119.89649 387.6511 116.075836C 387.6511 110.22278 383.05862 106.984474 374.3837 106.950066C 365.2868 106.91396 361.86395 110.19307 361.83527 116.075836L361.83527 116.075836L371.0817 116.075836C 371.0817 113.85538 372.4623 112.533554 374.41235 112.533554C 376.74753 112.533554 377.80652 113.4201 377.80652 115.07069C 377.80652 118.50748 371.43195 118.41858 367.67316 119.64843C 365.1168 120.48622 362.7939 122.38097 362.7939 126.40421C 362.7939 129.76561 365.31546 134.62971 374.3837 134.62971" stroke="none" fill="#FFFFFF" fill-rule="nonzero" />
        <path d="M177.5721 117.27845C 175.97743 110.99318 170.76347 106.91894 164.26065 106.91731C 156.40959 106.91731 150.43732 112.85845 150.4453 121.45593C 150.4513 130.04236 155.75984 135.98433 164.26065 135.99231C 171.30914 135.9983 176.16219 131.90352 177.6192 125.60965L177.6192 125.60965L168.62637 125.60883C 167.93668 127.50031 166.61159 128.97577 164.26065 128.9774C 160.29272 128.97823 159.2462 124.77268 159.24783 121.45593C 159.24866 118.13693 160.29271 113.93385 164.26065 113.93385C 166.60194 113.93385 167.9246 115.3964 168.61674 117.27763L168.61674 117.27763L177.57208 117.27845" stroke="none" fill="#FFFFFF" fill-rule="nonzero" />
        <path d="M111.27463 139.30988L122.756035 139.30988L127.75389 120.6327L132.75156 139.30988L144.24095 139.30988L149.26114 106.91731L139.78816 106.91731L137.28606 125.84808L132.10896 106.91731L123.398605 106.91731L118.222336 125.84808L115.718796 106.91731L106.23927 106.91731L111.27461 139.30988" stroke="none" fill="#FFFFFF" fill-rule="nonzero" />
        <path d="M258.54132 123.18518C 258.54132 122.08008 258.54132 107.6918 258.54132 107.6918L258.54132 107.6918L249.0409 107.6918L249.0409 135.31306L258.54132 135.31306L258.54132 133.15509C 260.94614 135.02895 263.11945 135.99231 268.04993 135.99231C 273.40442 135.99231 277.7183 132.41399 277.72037 128.65744L277.72037 128.65744L277.72037 107.6918L268.15234 107.6918L268.15234 122.895546C 268.15634 125.4208 265.89502 127.47963 263.43286 127.47963C 260.26605 127.47963 258.69083 124.67744 258.54132 123.18519" stroke="none" fill="#FFFFFF" fill-rule="nonzero" />
        <path d="M343.3015 132.57335L343.3015 139.31294L352.9105 139.31294L352.9105 107.69733L343.3015 107.69733L343.3015 109.23137C 342.0397 108.09185 340.3846 106.92775 336.24277 106.92775C 331.5827 106.92775 324.1798 109.51691 324.17368 120.63986C 324.16766 131.74683 331.5745 134.62971 336.84296 134.62971C 340.66934 134.62971 342.476 133.30872 343.3015 132.57335zM333.33 120.63986C 333.33 116.31674 335.3415 113.55449 338.64554 113.55449C 340.62634 113.55449 342.28348 114.41788 343.3056 116.21903L343.3056 116.21903L343.3056 124.512535C 342.79352 126.34338 341.0155 127.693275 338.6455 127.693886C 335.33533 127.695885 333.32996 124.962364 333.32996 120.63986" stroke="none" fill="#FFFFFF" fill-rule="nonzero" />
        <path d="M217.14426 121.45204C 217.15225 130.03847 222.72058 135.98186 231.63782 135.98985C 240.55855 135.99785 246.12605 130.03847 246.1322 121.45204C 246.1402 112.85599 240.5565 106.91567 231.63782 106.91567C 222.72939 106.914856 217.13708 112.855995 217.14426 121.45204zM237.14389 121.45204C 237.14589 124.77022 235.9968 128.97414 231.63782 128.97414C 227.27988 128.97614 226.13074 124.770226 226.13156 121.45205C 226.13356 118.134476 227.27988 113.93058 231.63782 113.93058C 235.99678 113.93058 237.14389 118.13448 237.14389 121.45205" stroke="none" fill="#FFFFFF" fill-rule="nonzero" />
        <path d="M180.9206 139.30988L197.43018 139.30988C 207.75937 139.30988 214.79906 132.89412 214.79906 123.11391C 214.79906 113.334496 207.761 106.91731 197.43018 106.91731L197.43018 106.91731L180.9206 106.91731L180.9206 139.30988zM191.84198 114.5748L196.83328 114.5748C 200.06749 114.5748 204.00427 116.54698 204.00427 123.11391C 204.00427 129.67284 200.06749 131.6524 196.83328 131.6524L196.83328 131.6524L191.84198 131.6524L191.84198 114.57481" stroke="none" fill="#FFFFFF" fill-rule="nonzero" />
        <path d="M294.85922 135.9884C 301.6783 135.9944 307.29907 133.4863 307.73743 127.980446L307.73743 127.980446L307.73743 107.69589L298.12024 107.69589L298.12024 110.430695C 295.78506 108.42963 293.4581 106.92837 289.25482 106.92837C 284.35916 106.92837 280.41397 110.79879 280.41397 115.335556C 280.41397 119.873344 283.20798 124.914215 294.39423 124.911766C 297.27835 124.91115 298.1182 126.045746 298.12024 127.397064C 298.12424 129.05667 296.21115 129.98233 294.6093 129.98233C 293.00748 129.98233 291.19055 129.31517 291.19055 127.58039L291.19055 127.58039L282.18176 127.58039C 282.18176 131.65074 284.9184 135.97878 294.85922 135.9884zM294.32663 120.423744C 292.10822 120.423744 290.05573 119.23957 290.05573 116.97119C 290.05573 115.50208 290.92426 114.23393 293.1918 114.23454C 295.36105 114.23454 297.67572 115.52134 298.1202 118.18895L298.1202 118.18895L298.1202 120.71584C 297.3869 120.31497 295.7277 120.423744 294.3266 120.423744" stroke="none" fill="#FFFFFF" fill-rule="nonzero" />
        <path d="M340.698 85.19949L346.60144 85.19949C 349.52448 85.19949 351.47046 83.62961 351.47046 81.55562C 351.47046 79.640175 349.9956 78.38308 348.17255 78.22617L348.17255 78.22617L348.17255 78.163086C 350.9686 77.22124 351.37622 75.273636 351.409 72.6349L351.409 72.6349L348.7707 72.6349C 348.67648 75.80744 347.9841 77.189285 345.19012 77.189285L345.19012 77.189285L343.02087 77.189285L343.02087 72.6349L340.698 72.6349L340.698 85.1995L340.698 85.19949zM343.02087 79.199974L345.7862 79.199974C 347.9534 79.199974 348.83215 79.95378 348.83215 81.36758C 348.83215 82.43581 348.17258 83.18961 346.16312 83.18961L346.16312 83.18961L343.02087 83.18961L343.02087 79.19997zM345.53424 89.56604C 351.50323 89.56604 356.33948 84.76032 356.33948 78.75998C 356.33948 72.76046 351.50323 67.95474 345.53424 67.95474C 339.56525 67.95474 334.729 72.76046 334.729 78.75998C 334.729 84.760315 339.56525 89.56604 345.53424 89.56604zM345.53424 69.11659C 350.84366 69.11659 355.17804 73.419846 355.17804 78.75999C 355.17804 84.10013 350.84366 88.40338 345.53424 88.40338C 340.22687 88.40338 335.89044 84.10013 335.89044 78.75999C 335.89044 73.419846 340.22687 69.11659 345.53424 69.11659" stroke="none" fill="#FDC82F" fill-rule="nonzero" />
	</g>
</g>
</svg>