<?xml version="1.0" standalone="no"?>
<!DOCTYPE svg PUBLIC "-//W3C//DTD SVG 1.0//EN" "http://www.w3.org/TR/2001/REC-SVG-20010904/DTD/svg10.dtd">
<svg xmlns="http://www.w3.org/2000/svg" xmlns:xlink="http://www.w3.org/1999/xlink" id="body_1" width="90" height="90">

<g transform="matrix(0.1202302 0 0 0.1202302 0.00030453817 -0)">
    <path d="M0 374.285C 0 167.584 167.561 0 374.285 0C 580.992 0 748.558 167.584 748.558 374.285C 748.558 580.998 580.992 748.564 374.285 748.564C 167.561 748.564 0 580.992 0 374.285" stroke="none" fill="#067655" fill-rule="nonzero" />
    <path d="M11.033 374.285C 11.033 173.678 173.66 11.051 374.279 11.051C 574.892 11.051 737.525 173.678 737.525 374.285C 737.525 574.892 574.893 737.531 374.279 737.531C 173.66 737.525 11.033 574.893 11.033 374.285" stroke="none" fill="#FFFFFF" fill-rule="nonzero" />
    <path transform="matrix(1 0 0 1 -0 -2.441336E-06)"  d="M374.28125 22.875C 180.19525 22.875002 22.874998 180.20724 22.875 374.28125C 22.875002 568.36127 180.18924 725.6875 374.28125 725.6875C 568.3553 725.6875 725.6875 568.36127 725.6875 374.28125C 725.6875 180.20724 568.36127 22.875 374.28125 22.875zM377.59375 47.90625C 388.29953 48.01067 398.63562 49.37819 407.6875 53.84375C 413.6175 59.15775 415.30402 66.149254 415 73.90625C 413.324 79.39025 410.28125 84.692 405.40625 88.5C 411.34225 92.906 417.2795 97.471 418.1875 105.375C 419.8695 113.133 417.56226 120.12325 413.15625 125.90625C 403.88626 136.39426 389.14502 133.68 375.75 134.125L375.75 134.125L340.375 135.0625L340.15625 131.84375L336.5 51.53125L336.34375 49.78125C 349.43088 49.696312 363.82916 47.772 377.59375 47.90625zM445.5625 56.125L473.5625 65.15625C 467.3165 83.17925 459.11752 100.96075 454.6875 119.96875C 454.2425 124.69775 457.03452 129.5725 462.4375 130.9375C 466.1755 132.9945 471.5065 133.3805 474.3125 130.9375C 486.3355 114.0625 492.02652 93.063 499.5625 74.125C 509.14252 77.477 516.62524 82.28325 525.90625 85.78125C 516.0043 106.76925 509.91275 131.46275 496.21875 148.71875C 486.33374 157.39075 470.6715 155.269 458.8125 152.375C 445.2715 147.51799 430.50726 138.842 426.40625 123.625C 423.21826 113.207 437.66452 77.482 445.5625 56.125zM283.71875 61.65625C 292.344 61.43512 300.40875 63.909378 307.15625 70.875C 312.62924 76.957 313.38425 85.460754 313.53125 93.21875C 312.17725 98.22875 310.92776 103.268 307.59375 107.375C 314.80676 116.258 328.23 126.33825 337.5 135.15625L337.5 135.15625L336.34375 135.53125L308.96875 141.59375C 299.23074 133.75975 293.72302 128.21326 285.25 122.40625C 281.6 122.85125 279.08426 125.00825 275.65625 126.53125L275.65625 126.53125L285.0625 148.125L259.375 162.125C 248.83401 136.414 235.92601 106.367 226.375 82.25C 243.00426 75.55925 264.74326 62.14274 283.71875 61.65625zM554.625 113.5625C 570.53613 113.85814 584.7706 120.6125 594.3125 132.3125C 599.4925 138.6935 602.976 146.59924 605.25 154.65625C 598.863 158.09026 593.99426 161.98875 587.90625 164.71875C 586.40027 155.29076 581.2438 145.67975 571.96875 140.96875C 567.5567 138.37875 560.97876 137.949 555.96875 139.625C 548.2048 142.508 541.5453 149.1795 538.65625 156.9375C 536.0663 164.3905 538.94775 171.69176 543.21875 177.46875C 549.14276 184.16574 557.05304 187.66975 566 187.96875C 561.98 194.58376 559.7768 198.7575 555.96875 203.9375C 541.0508 201.8045 527.07654 193.59502 518.5625 179.75C 511.26147 168.049 510.82578 150.10425 517.21875 137.78125C 523.9047 124.23425 537.12726 115.57375 551.40625 113.59375C 552.4811 113.55562 553.5643 113.54279 554.625 113.5625zM177.84375 113.84375L180.4375 115.4375C 205.6215 130.8185 231.49501 148.9235 257 163.4375L257 163.4375L254.375 165.1875L234.28125 178.40625C 226.78725 174.45724 222.4105 171.78925 216.9375 169.28125L216.9375 169.28125L194.71875 188C 197.00374 193.484 199.91176 200.16801 202.34375 206.25L202.34375 206.25L182.5 228.4375L180.90625 224.9375L145.75 141.4375L177.84375 113.84375zM373.46875 156.375C 492.98178 156.375 589.875 253.2875 589.875 372.8125C 589.875 492.32053 492.98175 589.1875 373.46875 589.1875C 253.95576 589.18756 157.0625 492.3205 157.0625 372.8125C 157.0625 253.2875 253.95575 156.375 373.46875 156.375zM623.5 164.53125L639.9375 186.15625C 632.9475 193.15225 623.6888 199.09026 616.21875 205.78125C 628.0897 208.35925 641.44904 207.89401 653.625 209.875C 659.104 217.797 661.98553 225.39375 667.3125 234.96875L667.3125 234.96875L622.625 231.8125C 612.734 247.3225 603.74475 263.131 595.21875 279.25C 589.9047 271.492 585.805 261.44727 580.625 252.78125C 586.414 241.06224 593.92377 228.68776 599.71875 216.96875C 589.75775 223.13876 581.012 231.119 570.875 237.5L570.875 237.5L555.09375 216.28125C 576.3867 198.02925 599.3225 181.7525 621.6875 165.1875L621.6875 165.1875L623.5 164.53125zM119.53125 169.78125L137.84375 180.53125C 133.80075 188.89224 128.49625 194.60776 124.78125 202.59375L124.78125 202.59375L176.78125 236.8125C 174.03925 244.5645 168.12074 252.18301 163.09375 259.625L163.09375 259.625L109.71875 226.3125C 104.93175 232.6235 101.4805 239.09326 96.6875 247.15625C 89.6915 242.52126 84.745 239.45651 79.125 235.4375C 92.367004 213.3655 104.93525 192.67926 119.53125 169.78125zM74.125 253.21875C 78.679 255.81874 84.00775 259.78076 88.71875 263.71875C 79.27975 271.03674 72.582504 281.67975 74.5625 293.84375C 75.63451 295.66574 76.688 298.38675 79.125 298.84375C 86.725 298.84375 89.3205 290.652 92.8125 285.625C 96.9255 276.496 104.832 266.61652 115.625 265.5625C 124.9 264.9585 132.83025 267.3865 138.90625 274.6875C 148.18124 285.80252 146.526 303.71927 142.125 316.65625C 137.99998 326.23624 131.623 335.97275 122.5 342.21875L122.5 342.21875L106.0625 332.1875C 115.0395 325.96448 124.4745 315.74576 125.6875 304.34375C 125.6875 300.23672 124.789 294.7695 119.75 294.3125C 109.262 297.3595 108.17925 309.971 101.03125 317.125C 95.55824 322.756 88.70925 326.99426 80.03125 325.78125C 71.968254 325.31824 65.11725 320.29825 60.40625 313.90625C 51.42925 300.22424 55.871754 280.13925 61.34375 269.65625C 64.70075 263.71524 68.652 257.79477 74.125 253.21875zM659.125 260.3125C 669.6913 260.18405 679.87054 266.67776 684.65625 275.59375C 692.55426 288.36172 695.619 305.25427 691.5 320.78125L691.5 320.78125L674.625 319.875C 676.91595 309.68 678.5855 296.894 671.4375 288.375C 669.3105 285.79102 665.52325 284.24802 662.78125 285.625C 653.5063 295.967 663.533 310.88675 657.75 322.59375C 655.002 327.92575 650.90375 334.30475 644.96875 336.71875C 635.3768 340.37476 623.5198 338.557 616.21875 331.25C 601.9338 316.344 595.23505 293.215 604.375 273.75L604.375 273.75L622.15625 273.75C 619.11523 281.373 616.992 292.17926 619.875 301.15625C 621.38696 304.95923 623.2323 309.8225 627.65625 311.1875C 642.25226 311.7145 632.34576 290.80652 635.84375 281.0625C 637.2148 273.7615 641.177 266.16452 648.625 262.8125C 652.0452 261.1395 655.6029 260.35532 659.125 260.3125zM97.375 407.90625L105.59375 432.125C 114.80475 432.078 123.6725 432.41052 133.1875 432.1875L133.1875 432.1875L112 449.90625C 114.039 457.35925 115.791 465.91025 118.375 475.90625L118.375 475.90625L97.375 461.3125C 88.545006 465.34348 83.242004 470.295 74.125 475L74.125 475L81.4375 449.90625C 74.5055 444.23425 66.7385 438.8395 60.1875 433.0625C 69.7385 432.8165 78.10975 433.18802 87.34375 433C 91.60975 425.02502 93.496 415.88727 97.375 407.90625zM650.28125 408.03125L658.46875 432.21875C 667.6678 432.18375 675.8943 432.45477 686.03125 432.34375L686.03125 432.34375L664.875 450.03125C 666.932 457.46725 668.67804 466.0545 671.25 476.0625L671.25 476.0625L650.28125 461.4375C 641.4392 465.4575 636.129 470.414 627 475.125L627 475.125L634.28125 450.03125C 627.36127 444.37125 619.60876 438.9655 613.09375 433.1875C 622.6207 432.9415 630.9908 433.34427 640.21875 433.15625C 643.94574 424.84726 646.61926 416.84427 650.28125 408.03125zM171.09375 528.03125C 175.39172 527.9508 179.75777 528.3985 184.09375 529.3125C 195.77576 532.5115 206.75401 541.32 213.75 552.125C 215.584 556.53094 218.21275 560.015 219.34375 566.625C 214.48074 569.68396 208.34126 572.1945 202.78125 574.9375C 201.42726 564.89453 192.60275 555.1525 182.71875 552.5625C 174.50975 550.5235 165.54475 554.42377 159.46875 561.71875C 154.44176 567.6367 152.9135 576.14075 154.4375 583.59375C 158.3985 593.9177 169.3395 601.71875 180.4375 601.71875L180.4375 601.71875L183.625 601.84375C 180.596 609.15674 178.63051 612.79626 175.4375 618.28125C 157.0215 617.65424 138.474 606.8635 131.625 589.0625C 125.69499 574.6245 128.2865 555.9303 137.5625 543.90625C 146.0045 533.1925 158.19984 528.2725 171.09375 528.03125zM556.4375 532.03125C 560.8545 534.93225 564.0453 538.7365 568.28125 542.5625L568.28125 542.5625L569.4375 543.6875L542.0625 569.15625L551.1875 580.1875C 558.93945 574.10547 567.3028 567.62103 575.59375 559.875C 579.85376 563.449 583.2935 567.641 587.3125 572.375C 579.1155 580.191 570.5745 585.50977 563.4375 592.96875C 566.4785 596.7828 568.8288 601.08624 573.46875 605.65625L573.46875 605.65625L603 581.3125L615.59375 594.34375C 598.86475 610.2287 580.62427 626.5903 563.28125 639.28125L563.28125 639.28125L511.71875 572.65625C 528.1547 558.9573 541.98254 546.4803 556.4375 532.03125zM237.21875 577.125C 253.99992 577.2127 269.2494 585.3953 278.09375 598.65625C 287.36874 610.52124 287.50177 628.9338 281.71875 642.46875C 275.26773 656.2388 262.88977 664.9903 249.34375 668.03125C 232.93774 670.60925 217.40227 665.30927 205.53125 653.90625C 195.04324 642.3402 189.27975 625.739 194.59375 609.625C 199.31075 592.129 216.34177 579.35077 233.84375 577.21875C 234.97456 577.15173 236.10002 577.11914 237.21875 577.125zM501.875 578.125C 505.31 582.131 507.30652 586.6913 510.3125 591.53125L510.3125 591.53125L511.09375 592.96875L477.6875 609.71875L483.34375 622.84375C 493.53275 618.95276 502.33777 615.3398 512.46875 610.21875C 515.55676 614.8598 517.6758 619.81476 520.21875 625.46875C 511.03076 630.36676 501.514 634.1615 491.5 638.5625C 493.36298 643.0625 494.29352 646.3435 497.5625 653.5625L497.5625 653.5625L532.75 638.5L541.21875 654.53125C 520.6988 665.07825 498.59 675.6498 478.375 682.96875L478.375 682.96875L447.5625 604.5625C 467.1795 596.0315 483.957 587.922 501.875 578.125zM304.5625 605.875C 324.7945 610.246 345.51602 614.052 365.25 617C 364.149 623.197 363.769 630.65204 362.75 638.375C 350.023 636.242 337.87552 633.98425 325.6875 632.15625C 325.0075 638.25024 323.29126 641.91327 322.78125 646.53125C 333.72025 649.7893 343.84225 650.9098 354.40625 652.84375L354.40625 652.84375L351.40625 672.40625C 340.90024 671.04724 329.5755 669.2153 318.8125 666.90625C 316.4275 675.39026 314.2755 686.0725 311.1875 695.3125C 302.2105 693.8825 292.68527 691.8535 284.03125 688.4375L284.03125 688.4375L304.09375 607.53125L304.5625 605.875zM436.4375 607.78125C 437.2825 614.0192 439.16626 621.2435 440.53125 628.9375C 427.73425 630.7835 415.53076 632.3003 403.34375 634.28125C 404.57376 640.28125 404.01852 644.305 404.9375 648.875C 416.3515 648.652 426.31677 646.627 436.96875 645.25L436.96875 645.25L440.09375 664.75C 429.67575 666.66003 418.30902 668.39075 407.375 669.46875C 407.68 678.28674 408.85977 689.07355 408.71875 698.8125C 399.74774 700.1835 390.06326 701.1715 380.78125 700.5625L380.78125 700.5625L375.3125 617.375L375.21875 615.625C 395.81473 613.645 416.75052 610.9803 436.4375 607.78125z" stroke="none" fill="#067655" fill-rule="nonzero" />
    <path d="M383.959 67.969C 386.08 70.237 385.641 74.965 384.404 77.555C 380.461 82.125 373.16 81.955 367.072 81.194C 367.517 76.032 365.613 71.005 365.994 65.69C 371.168 66.445 380.156 63.855 383.959 67.969" stroke="none" fill="#067655" fill-rule="nonzero" />
    <path d="M283.57 88.951C 285.076 92.754 285.17 98.947 281.929 101.203L281.929 101.203L266.876 107.59C 263.12 100.682 261.521 95.947 258.937 90.334C 265.928 87.744 277.934 77.25 283.57 88.951" stroke="none" fill="#067655" fill-rule="nonzero" />
    <path d="M388.975 102.645C 390.182 107.977 387.762 113.45 382.582 114.522C 377.719 115.272 374.074 114.821 368.9 114.967C 368.138 109.483 367.693 102.188 368.138 97.623C 375.129 98.537 385.641 94.734 388.975 102.645" stroke="none" fill="#067655" fill-rule="nonzero" />
    <path d="M199.148 157.863C 195.046 161.672 190.476 165.316 185.466 168.808C 181.81 160.136 178.306 152.378 174.509 142.798C 183.246 147.445 190.922 152.836 199.148 157.863" stroke="none" fill="#067655" fill-rule="nonzero" />
    <path transform="matrix(1 0 0 1 -0 -2.441336E-06)"  d="M371.875 171.625C 339.2328 171.89537 306.86627 179.48305 280.8125 194.375C 216.4826 227.0821 177.7145 293.53925 172.6875 362.28125L172.6875 362.28125L174.5 365.9375C 198.6821 378.8696 214.35349 350.426 237.9375 353.625C 243.2526 356.0631 236.87325 360.15823 237.03125 363.65625C 235.19135 368.21436 228.7895 366.0825 224.6875 367.3125C 208.5566 374.3026 191.986 387.84424 173.125 380.53125C 173.125 380.53134 173.26024 381.94174 173.40625 383.96875L173.40625 383.96875L173.375 383.96875C 173.767 389.15384 174.50002 398.34375 174.5 398.34375C 195.6471 405.04785 209.322 382.9665 229.25 385.5625C 228.7811 389.9686 228.4885 394.687 226.0625 397.875C 207.8106 398.80008 196.38475 415.98224 177.21875 414.78125L177.21875 414.78125L180.875 429.375C 197.44508 431.0561 208.1115 414.0115 224.6875 415.6875L224.6875 415.6875L224.25 426.625C 209.6431 427.9911 200.21675 441.67975 185.46875 442.59375C 187.43684 476.35583 210.83376 437.41776 225.59375 443.96875C 226.19684 447.61285 228.34575 451.1175 226.96875 454.9375C 215.10384 454.7736 207.64851 465.133 197.3125 468.625C 199.13458 472.8791 200.3575 478.95673 205.0625 480.46875C 213.8926 476.81885 221.04324 469.08627 231.53125 469.53125C 230.31934 465.57034 229.25575 460.24203 229.71875 456.75C 242.94383 460.2431 250.56276 449.88675 259.84375 443.96875C 261.96484 425.24283 275.03073 410.9645 283.09375 394.6875C 283.95483 391.09558 284.2465 387.52573 284.1875 383.96875C 283.7776 364.18185 271.86526 345.04922 281.28125 324.40625C 284.17636 316.34436 289.19876 305.7225 297.71875 303.4375C 282.05084 322.1526 284.94724 350.734 293.15625 371.875C 294.81534 376.1761 295.408 380.17175 295.25 383.96875C 294.54703 400.6558 279.0215 413.37473 273.0625 428.46875C 265.62753 443.53378 272.4395 460.7305 280.8125 473.1875C 268.80054 482.46854 257.69925 494.31998 242.03125 494.625C 237.6303 492.47504 237.4725 486.4255 235.1875 482.3125C 225.91754 480.47855 218.48425 486.8785 211.03125 491.4375L211.03125 491.4375L219.6875 502.375C 226.07355 499.32803 233.3925 492.81598 240.6875 497.375C 251.49155 510.15503 230.1675 503.73 227.4375 511.5C 230.46654 515.60706 234.1345 518.648 237.9375 522C 242.34354 520.629 245.8495 517.125 251.1875 517.875C 253.31454 520.45905 255.74226 523.04675 256.65625 526.09375L256.65625 526.09375L248.4375 531.125C 254.37254 537.2071 261.83173 542.996 268.96875 545.75C 273.2348 531.43005 284.63675 520.346 289.96875 506.5C 291.0348 501.17404 291.32852 494.7735 292.6875 490.0625C 308.04453 513.9395 275.8125 528.092 275.8125 550.75C 279.16953 553.7851 283.26974 555.449 287.21875 557.125C 286.6088 539.33606 301.521 527.934 307.75 512.875C 319.16403 488.99203 292.84177 474.08548 284.46875 454.9375C 276.55878 437.58154 287.668 421.289 298.625 408.375C 306.25403 400.13705 308.2365 392.07275 307.5625 383.96875C 306.0446 365.61084 290.91 347.17752 297.25 326.6875C 300.9071 313.9136 306.36874 298.689 319.59375 293.375C 310.00784 304.4671 304.98975 317.40225 304.09375 332.15625C 301.42786 352.20135 317.49225 366.13876 318.40625 383.96875C 318.5763 387.5258 318.15198 391.23026 316.875 395.15625C 309.42206 411.2813 292.54648 423.42175 292.6875 442.59375C 290.70755 467.8238 323.71848 477.4315 320.0625 503.3125C 319.76355 525.8245 293.91226 538.26575 299.53125 562.59375L299.53125 562.59375L313.6875 567.1875C 305.62454 539.8126 334.06674 524.5737 334.21875 500.09375C 335.5838 479.3988 313.381 468.6135 307.75 450.8125C 301.82605 433.16354 314.746 419.03098 324.625 405.625C 329.48306 398.06104 330.62274 390.92975 329.84375 383.96875C 327.86285 366.71884 313.93777 350.56876 314.59375 331.71875C 314.28384 314.38086 321.8785 297.33826 336.9375 289.28125C 332.3916 295.80835 327.215 302.04276 324.625 309.34375C 315.1911 334.90784 331.02325 356.81674 338.78125 378.71875C 339.37836 380.52985 339.79724 382.26974 340.03125 383.96875C 342.9493 404.2658 322.15677 417.223 318.21875 435.75C 312.89282 458.26205 337.09225 468.5975 342.40625 487.3125C 353.8203 517.86957 316.86526 535.676 325.53125 566.25C 325.3793 575.2271 335.875 571.74054 341.5 573.5625C 327.81305 548.3206 349.8825 527.47876 356.5625 505.59375C 364.02155 482.1568 341.68726 468.9175 332.40625 450.8125C 322.6563 430.43457 344.84976 417.805 349.71875 400.625C 353.8138 388.90607 364.33752 399.72073 371.1875 398.34375C 380.46857 400.0378 388.51727 390.8865 396.28125 397.4375C 400.0723 412.95355 418.01025 422.53125 418.15625 439.40625C 417.5473 465.55032 379.69577 479.24374 391.71875 507.84375C 401.60382 527.77783 418.46875 550.5825 407.21875 573.5625L407.21875 573.5625L421.34375 570.375C 430.77682 546.79114 413.3045 528.6763 404.9375 509.65625C 397.33856 487.9183 416.359 471.6485 427.75 454.9375C 438.56705 434.69955 421.22876 418.0935 411.34375 402.4375C 407.9338 395.99255 407.2365 389.87473 408.0625 383.96875C 409.8036 371.44785 418.37326 359.809 422.28125 348.125C 430.64835 328.2091 425.92725 303.434 410.40625 288.375L410.40625 288.375L410.875 287.90625C 418.6331 292.47635 425.627 300.5335 429.125 308.4375C 442.4371 335.2086 423.3985 358.91974 418.6875 383.96875L418.6875 383.96875L418.1875 386.9375C 417.73654 404.59753 432.1915 412.96075 439.1875 427.09375C 450.88855 449.9048 430.21725 466.03275 418.65625 483.21875C 399.9353 515.3108 444.66025 534.164 435.53125 566.25L435.53125 566.25L449.21875 561.6875C 452.7108 544.48456 439.77325 530.52325 431.40625 516.53125C 419.8573 493.10028 440.54123 475.00778 452.40625 457.21875C 462.9003 435.01178 444.65625 416.295 434.15625 399.25C 430.7993 394.34604 429.73825 389.17175 430.03125 383.96875L430.03125 383.96875L430.0625 383.96875C 430.6136 374.00784 436.10376 363.9105 440.09375 355.4375C 448.00485 334.1336 442.5215 308.30075 428.6875 292.46875C 437.9686 296.27786 444.79074 306.633 447.84375 315.75C 458.79584 338.4141 445.406 361.07602 441 382.375L441 382.375L440.96875 383.96875C 440.79984 404.3948 460.152 415.68326 465.625 433.90625C 470.95706 452.77432 455.9145 465.8515 446.9375 479.5625C 420.01358 507.55856 461.99423 528.54474 461.53125 556.21875C 465.4923 554.5489 470.6525 553.76154 472.9375 549.8125C 470.95758 534.46155 457.88525 523.64825 452.40625 509.65625C 452.10733 502.9703 450.58026 494.74374 455.15625 489.59375L455.15625 489.59375L456.0625 490.5C 454.39258 512.8481 473.86926 526.3947 479.78125 545.71875C 486.64233 541.58887 493.77524 537.6757 499.40625 531.59375C 497.2853 529.4558 494.09576 527.7925 491.21875 526.5625C 489.6718 523.21655 494.09177 520.01575 496.21875 516.96875L496.21875 516.96875L508.96875 521.53125C 512.7718 518.02734 516.9103 515.16376 519.03125 510.59375C 514.4613 507.3948 509.44174 505.08948 503.96875 504.1875C 503.79382 500.69556 505.77148 497.96326 508.0625 495.53125C 515.83856 495.2333 521.92224 498.87125 528.15625 501.90625C 531.4903 498.87732 535.17395 494.93124 536.375 490.53125L536.375 490.53125L519.9375 482.3125C 508.68158 475.16357 511.723 490.66425 506.25 494.15625C 490.89307 493.54733 479.947 482.74225 468.375 473.15625C 469.74606 466.17233 475.2225 460.86102 477.0625 454C 483.75357 431.65308 465.9535 414.78677 456.0625 396.96875C 453.58356 392.60983 452.6585 388.28674 452.6875 383.96875C 452.7696 371.85785 460.186 359.78674 460.625 347.21875C 464.4221 330.94684 456.8085 315.3045 450.5625 302.0625C 454.8336 304.6526 459.416 308.12524 462 312.53125C 470.5131 329.26535 472.9455 352.559 465.1875 370.5C 463.2776 375.3051 462.635 379.77975 462.875 383.96875C 464.12308 404.98083 487.736 419.695 488 442.125C 497.1121 448.98007 505.35727 460.40598 517.65625 456.75C 518.57635 461.15607 516.1293 465.84375 516.28125 469.96875C 527.2323 469.35883 534.545 477.59174 544.125 480.46875C 546.4042 476.51382 550.3615 472.55502 550.0625 468.125C 539.26965 464.93707 531.51196 454.311 519.5 454L519.5 454L521.75 443.5C 534.38806 443.19507 543.6602 453.861 555.53125 456.75C 559.6394 453.69107 560.998 448.0785 562.375 443.0625C 547.7792 440.78357 537.2835 428.44125 522.6875 426.15625C 522.9806 422.52933 521.92377 418.28275 523.59375 415.21875C 537.4339 415.21884 546.5605 426.34 559.1875 429.375C 571.3517 435.15308 567.383 420.70276 570.125 415.21875C 550.80115 415.99283 539.11523 398.0525 520.40625 397.4375L520.40625 397.4375L518.125 386C 538.3461 382.6721 552.03296 404.7365 572.875 398.8125C 574.88513 393.53857 574.402 389.11374 574.25 383.96875L574.25 383.96875L574.21875 380.53125C 550.64594 389.82434 535.143 366.24823 512.625 366.40625C 509.7191 363.06036 508.96475 358.961 507.59375 355C 532.9999 346.8031 549.73846 383.41748 574.6875 364.5625C 572.7247 333.6786 566.154 304.6645 551.875 278.8125C 536.9512 249.2986 509.4455 220.23074 480.6875 202.59375C 451.0765 181.63104 411.2709 171.29869 371.875 171.625zM373.46875 184.34375C 378.48877 191.18677 380.15826 200.15175 384.40625 207.59375L384.40625 207.59375L409.0625 208.96875L408.59375 211.25L390.34375 228.59375C 393.52576 236.35777 396.7385 244.134 399.9375 251.875C 413.7775 243.83002 427.021 233.7655 443.75 232.6875C 442.22702 241.52351 435.5355 250.818 436.4375 259.625C 446.78552 256.73602 456.21274 250.3395 467.46875 250.9375C 460.46075 263.87552 450.26624 276.8245 449.65625 292.9375C 434.29327 287.1715 418.4915 280.1685 401.3125 277.4375C 364.65652 271.19153 329.3435 279.22974 299.0625 293.84375C 296.4845 278.48077 289.03525 265.11676 279.90625 252.34375C 285.37927 250.51578 292.07574 253.5215 297.71875 255.0625C 302.43576 256.41653 306.38525 259.6365 311.40625 260.5625C 312.30225 251.43352 306.9845 242.4305 303.1875 234.0625C 305.7715 232.08252 309.89224 233.59924 312.78125 234.53125C 324.78726 239.08427 335.57925 246.22424 346.53125 252.78125C 352.15625 246.22427 354.2775 236.797 356.5625 228.125L356.5625 228.125L337.875 211.25L337.875 209.4375L362.5 208.0625C 366.60202 200.31052 369.36176 192.10175 373.46875 184.34375zM214.1875 266.90625C 215.60146 266.99527 217.17375 268.1825 218.3125 268.75C 230.0375 277.879 235.66025 290.49774 237.03125 304.34375C 251.77925 298.70676 271.83624 288.9655 287.65625 299.3125C 284.29922 304.0235 277.7965 306.62375 273.0625 310.71875C 265.3165 318.32376 255.875 327.6075 250.25 337.1875C 231.236 333.3785 216.0295 344.489 200.0625 350.875C 193.98051 352.082 185.92125 352.69476 180.90625 348.59375C 195.96524 323.79074 217.22125 300.97626 211.90625 268.28125C 212.53474 267.19562 213.33913 266.85284 214.1875 266.90625zM534.5625 267.375C 536.5315 267.674 537.8973 269.8225 537.28125 271.9375C 531.3632 302.96252 552.6405 324.86874 566.9375 348.59375C 550.51953 359.55075 534.9728 342.6645 519.46875 338.5625C 512.62476 337.50153 504.58826 336.59024 498.03125 337.65625C 488.62125 323.06625 475.988 309.36526 460.625 301.15625C 461.527 296.14627 468.52524 295.82776 473.40625 295.21875C 486.94125 293.86478 498.79724 299.467 509.90625 305.25C 512.03326 300.24002 512.9255 294.59625 514.4375 289.28125C 518.1055 280.30426 525.2865 271.166 534.5625 267.375zM371.8125 283.78125C 372.64368 283.76434 373.47766 283.77335 374.3125 283.78125C 378.76514 283.82358 383.2623 284.1883 387.59375 284.71875C 396.42477 286.99777 406.1583 290.81705 410.40625 300.25C 410.8753 302.834 413.45728 305.11105 411.78125 308C 402.8043 305.252 392.61554 306.7833 383.9375 310.28125C 376.17355 316.0583 377.39404 327.9253 379.375 336.28125L379.375 336.28125L381.6875 338.125C 385.48453 337.20502 385.6348 332.32803 388.96875 331.25C 394.60577 332.62704 402.36755 334.61304 407.6875 331.25C 412.39853 331.40802 412.24155 337.95453 412.6875 341.3125C 409.34753 358.9555 401.9158 378.1078 383.96875 386.46875C 376.50977 390.1248 366.89804 387.67178 359.75 385.09375C 342.113 374.5998 332.2388 353.79355 334.21875 334.9375C 335.58978 332.04855 337.71155 329.7378 341.0625 331.71875C 348.19354 336.58176 355.95004 327.93503 362.5 334C 370.40405 330.50204 365.68753 320.7758 365.6875 313.46875C 359.3005 305.24777 348.3613 306.44754 338.78125 307.0625C 334.51526 304.46655 339.10828 300.39505 340.15625 297.5C 347.43222 287.2372 359.34525 284.03525 371.8125 283.78125zM342.875 314.75C 348.79926 314.53265 354.63153 316.7671 357.46875 321.21875L357.46875 321.21875L357.46875 323.0625C 352.30078 322.59952 343.94177 317.42978 339.21875 323.96875C 336.18378 325.3278 335.72726 321.81177 336.03125 319.84375C 335.42227 317.5648 336.80127 315.75253 338.78125 315.3125C 340.11966 314.9983 341.5079 314.8002 342.875 314.75zM401.25 315.25C 405.49158 315.16306 409.9254 315.48654 411.78125 318.9375C 411.6403 320.77753 412.10178 322.90277 409.96875 323.96875C 404.1858 321.6898 396.12677 318.48553 390.34375 323.0625C 386.9918 315.9085 396.2808 317.43353 399.46875 315.3125C 400.05914 315.2913 400.6441 315.26245 401.25 315.25zM374.3125 345.0625C 371.06204 345.06104 367.6875 346.012 365.25 347.6875C 365.54904 348.90652 364.49826 350.72876 366.15625 351.34375C 371.02527 350.2888 379.8375 353.93326 382.5625 348.15625C 380.66403 346.0298 377.56302 345.064 374.3125 345.0625zM357.03125 360L357.46875 362.75C 363.4098 366.70502 365.2418 373.41653 373.46875 372.8125C 380.7638 373.24652 386.24203 366.41055 389.875 360.9375C 380.00204 359.57153 367.9883 361.68204 357.03125 360z" stroke="none" fill="#010101" fill-rule="nonzero" />
    <path d="M258.932 609.627C 264.082 621.639 258.159 633.498 249.791 642.012C 244.477 646.272 237.51 648.95 230.52 646.366C 226.12 644.233 220.676 640.343 219.457 635.62C 216.105 623.456 221.666 612.054 230.174 603.686C 235.348 599.42 242.801 596.995 249.328 600.036C 253.289 601.242 257.701 605.666 258.932 609.627" stroke="none" fill="#067655" fill-rule="nonzero" />
	<g>
        <path d="M621.193 688.816C 633.082 688.816 643.277 698.062 643.277 710.607C 643.277 723.269 633.093 732.503 621.193 732.503C 609.181 732.503 598.992 723.269 598.992 710.607C 598.992 698.063 609.182 688.816 621.193 688.816zM621.193 692.35C 611.062 692.35 603.234 700.184 603.234 710.608C 603.234 721.26 611.068 728.977 621.193 728.977C 631.207 728.977 639.035 721.272 639.035 710.608C 639.029 700.184 631.207 692.35 621.193 692.35zM616.535 723.27L612.656 723.27L612.656 698.063L622.306 698.063C 628.312 698.063 631.259 700.301 631.259 705.241C 631.259 709.782 628.429 711.721 624.661 712.19L624.661 712.19L631.845 723.264L627.609 723.264L620.894 712.313L616.529 712.313L616.529 723.27L616.535 723.27zM616.535 709.137L621.135 709.137C 625.846 709.137 627.375 707.778 627.375 705.006C 627.375 702.598 626.197 701.238 621.779 701.238L621.779 701.238L616.535 701.238L616.535 709.137z" stroke="none" fill="#010101" fill-rule="nonzero" />
	</g>
</g>
</svg>