<?xml version="1.0" standalone="no"?>
<!DOCTYPE svg PUBLIC "-//W3C//DTD SVG 1.0//EN" "http://www.w3.org/TR/2001/REC-SVG-20010904/DTD/svg10.dtd">
<svg xmlns="http://www.w3.org/2000/svg" xmlns:xlink="http://www.w3.org/1999/xlink" id="body_1" width="60" height="60">

<g transform="matrix(0.15000002 0 0 0.15000002 0 0)">
	<g>
		<g>
			<g>
				<g>
                    <path d="M151.147 4.931C 147.627 4.931 140.759 5.2990003 140.479 5.316C 141.81 5.671 37.753006 59.056 37.753006 58.496002C 37.721004 58.677002 37.672005 58.827003 37.577007 58.945004C 16.949007 84.179 4.7050056 116.235 4.7050056 151.371C 4.7050056 180.32901 13.142006 207.301 27.649006 230.02701C 27.747005 229.97401 64.587006 265.657 64.136 269.15002C 88.469 287.15002 118.555 297.80402 151.142 297.80402C 162.524 297.80402 173.581 296.46002 184.222 294.009C 184.028 292.855 183.852 291.7 183.694 290.562L183.694 290.562L181.771 277.062C 181.192 273.36902 178.16699 248.26901 178.16699 248.26901L178.16699 248.26901L178.157 248.195L181.37599 246.95901C 181.37599 246.95901 185.60799 247.13402 185.50299 247.14702C 185.50299 247.14702 189.79399 272.39102 190.54 276.77002L190.54 276.77002L191.347 281.40503C 191.659 283.27203 191.922 285.12302 192.307 287.04102C 192.57701 288.63602 192.817 290.165 193.05301 291.68802C 196.524 290.64502 199.94402 289.48703 203.29901 288.20502C 202.78902 285.33603 202.23401 282.37903 202.18701 281.94202L202.18701 281.94202L200.45801 271.67203C 198.17401 261.07703 196.718 253.21803 195.651 247.99002C 195.49901 247.23901 195.215 245.90402 195.215 245.90402L195.215 245.90402L198.51999 244.58202L202.87999 244.92201C 202.87999 244.92201 208.44199 269.26202 209.831 276.621L209.831 276.621L211.41699 284.814C 214.4 283.465 217.35399 282.039 220.22198 280.496L220.22198 280.496L219.30498 276.292C 219.20697 275.88498 219.10098 275.396 218.97598 274.852C 217.10799 266.63 212.14899 243.72699 212.14899 243.72699L212.14899 243.72699L216.12599 242.165L220.01099 242.71199L220.02998 242.71199C 220.02998 242.71199 225.02098 263.826 228.25998 275.843C 233.82198 272.391 239.15099 268.59998 244.17497 264.456C 244.17497 264.456 290.54797 195.04 290.87997 195.269C 295.227 181.412 297.58096 166.665 297.58096 151.37C 297.58 70.496 232.018 4.931 151.147 4.931z" stroke="none" fill="#A3080C" fill-rule="nonzero" />
				</g>
			</g>
		</g>
	</g>
	<g>
        <path d="M187.834 77.833C 187.834 77.833 169.544 43.343 162.08301 38.166C 154.63101 32.989 142.348 29.757 133.83301 30.833C 123.05201 32.194 98.39401 45.243 96.755005 45.674C 96.767006 45.8 87.56801 57.147 85.16601 68.833C 84.63201 71.43 75.16601 112.833 75.16601 112.833L75.16601 112.833L93.16601 164.83301L157.31201 195.43701L180.83301 169.83301C 180.83301 169.83301 183.83401 144.5 190.167 125.50001C 196.5 106.500015 194.5 96.16701 194.5 96.16701L194.5 96.16701L187.834 77.833z" stroke="none" fill="#FFF1E2" fill-rule="nonzero" />
	</g>
	<g>
        <path d="M114.552 210.378C 114.357 210.45201 114.179 210.531 114.012 210.606C 114.179 210.531 114.357 210.452 114.552 210.378" stroke="none" fill="#FFFFFF" fill-rule="nonzero" />
        <path d="" stroke="none" fill="#FFFFFF" fill-rule="nonzero" />
        <path d="M109.271 111.341C 108.253006 111.921005 107.5 112.05701 107.03001 112.30701C 106.559006 112.56401 105.81601 113.116005 106.00001 114.103004C 106.19401 115.095 106.46601 115.41701 106.561005 116.18201C 106.651 116.93901 106.287 118.311005 105.407005 119.869C 104.54101 121.431 103.15501 122.559006 102.368004 123.01601C 101.594 123.479004 101.119 123.604004 100.679 123.836006C 100.579 123.882 100.489 124.12101 100.399 124.601006C 100.395004 124.605 100.395004 124.605 100.39 124.61001C 100.446 124.56601 100.507996 124.52501 100.594 124.49201C 100.763 124.42001 101.111 124.41101 101.424 124.35301C 101.727005 124.29701 101.950005 124.22601 102.061005 124.21101C 102.179 124.197014 102.881004 124.098015 102.99901 124.072014C 103.117004 124.04901 105.24401 123.60401 106.56201 122.99702C 107.87301 122.38702 110.17501 121.277016 111.49401 119.683014C 112.46301 118.516014 113.63001 116.391014 113.74401 114.28201C 113.77101 113.846016 113.766014 113.57501 113.766014 113.57501C 113.766014 113.57501 113.77101 113.57501 113.77101 113.570015C 113.78601 113.570015 113.79901 113.56602 113.81301 113.56602C 113.59501 113.557014 113.405014 113.485016 113.25001 113.35802C 112.89701 113.082016 112.61201 112.87801 111.53001 111.722015C 110.83401 110.97601 110.882 110.429016 111.258 109.804016C 111.249 109.818016 111.233 109.832016 111.223 109.846016C 110.902 110.146 110.276 110.762 109.271 111.341" stroke="none" fill="#FFFFFF" fill-rule="nonzero" />
        <path d="M163.049 104.448C 163.049 104.448 162.455 104.499 162.25099 104.589C 162.08899 104.656 161.78299 104.77 161.57399 105.049995C 161.366 105.335 161.318 105.83299 161.75499 106.368C 162.2 106.90099 162.812 107.896996 162.76099 108.75C 162.72899 109.125 162.78398 110.351 162.38599 111.234C 161.94098 112.235 161.42699 113.222 161.07399 113.667C 160.87 113.929 159.928 114.971 159.79 115.709C 159.75299 115.864 159.79 116.036 159.86299 116.198C 159.86299 116.198 159.874 116.188995 159.874 116.201996C 159.86899 116.20699 159.874 116.215996 159.86899 116.225C 159.88799 116.167 159.911 116.111 159.95699 116.058C 160.19199 115.794 160.67099 115.527 161.50499 115.27C 162.611 114.92 163.396 114.503 164.008 114.036995C 163.93399 114.12299 163.915 114.22299 163.868 114.322C 163.93199 114.169 164.00299 114.018 164.14 113.897995C 164.469 113.615 168.809 110.701996 168.92 105.99899C 168.962 104.232994 166.671 103.99999 165.717 103.967995C 165.008 103.937996 163.672 104.588 163.107 104.451C 163.09799 104.447 163.081 104.432 163.06099 104.42799C 163.06999 104.42799 163.06999 104.43199 163.06999 104.43199C 163.071 104.443 163.053 104.443 163.049 104.448" stroke="none" fill="#FFFFFF" fill-rule="nonzero" />
        <path d="M116.833 136.916C 116.833 136.916 134.08301 142.25 142.33301 132.666C 150.58301 123.083 164.83301 137.75 165.74901 142.08301C 166.667 146.41602 144.33301 158.41602 137.58301 158.66602C 130.83301 158.91602 104.08301 155.33302 104.08301 152.58301C 104.08301 149.833 116.833 136.916 116.833 136.916z" stroke="none" fill="#FFFFFF" fill-rule="nonzero" />
        <path d="M187.625 68.375C 184.882 39.283 171.496 24.702 161.875 17.625C 151.764 10.962999 127.711 5.0950003 116.375 5.625C 103 6.25 72.112 20.839 70.917 21.917C 69.778 22.956 49.063 57.593998 51.625 63.782C 54.187 69.97 57.817 99.195 59 101.542C 59.36 102.245 65.269 121.285 69.167 120.584C 73.096 119.877 76.759 102.512 76.584 101.167C 76.084 97.334 69.127 80.061 69.667 77.625C 70.214 75.196 88.795 46.105 90.125 45.083C 91.063 44.369 122.936005 40.405 123.121 40.713C 123.117004 40.704002 123.117004 40.694 123.104004 40.685L123.104004 40.685L123.100006 40.68C 125.328 38.738 130.49501 33.619 135.112 33.803C 139.725 33.993 152.914 35.641003 160.366 40.824C 167.827 46.001 170.131 51.069 170.76399 52.487C 170.75899 52.487 170.74998 52.494 170.745 52.494C 170.995 52.531 181.374 76.125 184.416 76.209C 186.445 76.264 187.959 71.872 187.625 68.375z" stroke="none" fill="#FFFFFF" fill-rule="nonzero" />
        <path d="M174.713 87.718C 173.606 87.847 170.579 88.123 170.245 88.165C 169.651 88.242004 169.666 88.578 169.70299 88.83C 169.734 89.090004 169.82799 90.086 169.86398 90.515C 169.90099 90.941 170.34598 91.191 170.80199 91.154C 171.26099 91.122 174.15599 90.86 174.58798 90.793C 175.00998 90.724 175.42699 90.367 175.42198 90.026C 175.41298 89.683 175.41798 88.777 175.41298 88.411C 175.403 88.042 175.13 87.671 174.713 87.718" stroke="none" fill="#FFFFFF" fill-rule="nonzero" />
        <path d="M54.274 226.835C 54.849 226.96 55.461998 227.1 56.053997 227.238C 54.730995 226.931 53.291996 226.617 52.466995 226.41301C 52.058994 226.31001 51.416996 226.251 50.673996 226.266C 49.433994 226.293 47.902996 226.53601 46.666996 227.15701C 45.103996 227.934 35.173996 232.96901 31.011997 235.07101C 35.775997 241.89702 41.091995 248.29901 46.92 254.21202C 47.283997 252.71101 53.793 245.88103 54.709 241.87802C 55.963 236.393 52.842 229.152 54.274 226.835" stroke="none" fill="#FFFFFF" fill-rule="nonzero" />
        <path d="M220.015 242.717L212.168 243.72899C 212.168 243.72899 217.813 269.792 219.324 276.293L219.324 276.293L220.235 280.497C 222.965 279.027 225.634 277.475 228.257 275.844C 225.013 263.827 220.022 242.717 220.022 242.717L220.022 242.717L220.015 242.717z" stroke="none" fill="#FFFFFF" fill-rule="nonzero" />
		<g>
            <path d="M172.609 223.619L171.821 221.371L170.918 221.371L170.918 224.521L171.492 224.521L171.492 221.986L172.368 224.521L172.873 224.521L173.74 221.986L173.74 224.521L174.319 224.521L174.319 221.371L173.415 221.371L172.609 223.619" stroke="none" fill="none" />
            <path d="M167.706 221.898L168.734 221.898L168.734 224.521L169.355 224.521L169.355 221.898L170.385 221.898L170.385 221.371L167.706 221.371L167.706 221.898" stroke="none" fill="none" />
		</g>
        <path d="M265.487 138.438C 261.524 141.432 259.329 145.476 259.341 149.52301C 259.36002 155.522 264.212 161.29901 275.454 161.26201C 278.24402 161.24301 280.70502 160.96101 282.94202 160.58101C 283.59503 160.475 284.23502 160.35701 284.842 160.23201L284.842 160.23201L286.14902 154.64801C 283.971 155.376 281.21802 155.97801 279.01202 155.988C 273.02502 156.007 269.01102 152.457 269.002 147.802C 268.992 145.321 270.01202 143.142 271.85602 141.548C 273.83102 139.84001 276.742 138.807 280.38303 138.807C 283.26602 138.807 284.95203 139.604 286.10202 140.742C 286.333 140.96501 286.54602 141.199 286.73203 141.444L286.73203 141.444L287.67 141.444L289.505 134.854C 287.614 134.23001 284.811 133.705 281.854 133.672C 274.969 133.58 269.375 135.5 265.487 138.438" stroke="none" fill="#FFFFFF" fill-rule="nonzero" />
        <path d="M256.111 139.354C 256.919 139.354 257.59 139.64801 258.03998 140.033C 258.425 140.36 258.65598 140.74901 258.65598 141.085L258.65598 141.085L259.57898 141.085L261.36798 133.929L237.07298 133.929L236.71799 135.329L236.63399 135.66899C 236.63399 135.66899 239.29399 135.96799 238.47899 138.62599L238.47899 138.62599L232.41399 160.65999L242.72899 160.68L244.538 160.68L244.997 158.788C 244.997 158.788 242.72899 158.241 243.32199 156.146C 243.34999 156.015 244.204 152.88199 244.71399 151.00099C 244.94199 150.189 245.10399 149.605 245.10399 149.605L245.10399 149.605L250.65599 149.601C 251.564 149.601 252.26 149.768 252.79799 149.976C 253.90999 150.402 254.33699 151.048 254.33699 151.048L254.33699 151.048L255.94798 144.5L246.58798 144.5L247.59898 140.76L247.97899 139.36499L256.111 139.354z" stroke="none" fill="#FFFFFF" fill-rule="nonzero" />
        <path d="M226.591 156.727C 225.87201 155.957 219.63 146.23401 219.63 146.23401L219.63 146.23401L230.669 137.399L231.035 137.105C 231.529 136.692 231.994 136.4 232.401 136.18799C 233.574 135.58499 234.33 135.67099 234.33 135.67099L234.33 135.67099L234.773 133.90999L220.584 133.93098L220.231 135.32599L220.147 135.67099C 221.11101 135.73799 222.457 136.59999 221.35701 137.62698C 221.21301 137.74998 209.953 146.35399 209.953 146.35399L209.953 146.35399L210.041 146.04999L212.382 137.56898C 212.877 135.87498 214.697 135.67099 214.697 135.67099L214.697 135.67099L215.14201 133.926L201.59601 133.93L201.248 135.325L201.159 135.67C 201.80699 135.837 203.657 136.196 203.01599 138.627C 198.495 154.965 199.012 153.34799 198.706 154.238C 197.694 158.11101 196.176 158.64401 195.263 158.74301C 195.064 158.76201 194.892 158.76201 194.767 158.76901L194.767 158.76901L194.581 159.501L194.29399 160.65901L206.65799 160.65901L208.46199 160.65901L208.935 158.74101C 208.935 158.74101 206.687 158.296 207.11499 156.67401C 207.333 155.85901 207.90099 153.79102 208.402 151.966C 208.88799 150.195 209.319 148.643 209.319 148.643C 211.776 152.582 212.341 153.069 215.307 157.138C 218.03601 160.90201 220.953 160.726 227.99501 160.678C 228.56902 160.674 229.16301 160.66899 229.80301 160.66899L229.80301 160.66899L230.27101 158.78699C 228.486 158.798 227.304 157.495 226.591 156.727" stroke="none" fill="#FFFFFF" fill-rule="nonzero" />
        <path d="M293.399 134.391C 293.047 134.046 292.62997 133.87401 292.129 133.87401C 291.638 133.87401 291.221 134.046 290.868 134.391C 290.52402 134.73601 290.34802 135.16 290.34802 135.654C 290.34802 136.15201 290.52402 136.574 290.868 136.92601C 291.212 137.272 291.638 137.45201 292.129 137.45201C 292.63 137.45201 293.047 137.27101 293.399 136.92601C 293.748 136.574 293.92297 136.15201 293.92297 135.654C 293.928 135.16 293.747 134.736 293.399 134.391M293.224 136.75C 292.927 137.053 292.557 137.207 292.13 137.207C 291.704 137.207 291.342 137.054 291.046 136.75C 290.749 136.451 290.59598 136.085 290.59598 135.654C 290.59598 135.23201 290.749 134.86601 291.046 134.567C 291.347 134.264 291.70398 134.11101 292.13 134.11101C 292.557 134.11101 292.918 134.264 293.224 134.567C 293.521 134.866 293.669 135.232 293.669 135.654C 293.669 136.084 293.521 136.451 293.224 136.75" stroke="none" fill="#FFFFFF" fill-rule="nonzero" />
        <path d="M292.941 135.231C 292.941 134.985 292.83502 134.819 292.639 134.733C 292.509 134.691 292.342 134.668 292.10202 134.668L292.10202 134.668L291.415 134.668L291.415 136.631L291.754 136.631L291.754 135.855L292.026 135.855C 292.215 135.855 292.34 135.87799 292.421 135.92C 292.537 135.996 292.602 136.145 292.597 136.372L292.597 136.372L292.597 136.523L292.612 136.59C 292.612 136.599 292.612 136.604 292.612 136.61299C 292.612 136.61299 292.612 136.622 292.622 136.63199L292.622 136.63199L292.941 136.63199L292.936 136.60399C 292.917 136.58998 292.917 136.55798 292.909 136.50398L292.909 136.50398L292.909 136.36198L292.909 136.21399C 292.909 136.11398 292.872 136.00499 292.799 135.90498C 292.734 135.80498 292.612 135.73798 292.465 135.71498C 292.585 135.69598 292.678 135.66898 292.747 135.61998C 292.871 135.535 292.941 135.408 292.941 135.231M292.395 135.575C 292.326 135.603 292.218 135.612 292.076 135.612L292.076 135.612L291.757 135.612L291.757 134.905L292.04898 134.905C 292.24298 134.901 292.387 134.928 292.47498 134.977C 292.559 135.02301 292.60498 135.123 292.60498 135.267C 292.603 135.413 292.533 135.517 292.395 135.575" stroke="none" fill="#FFFFFF" fill-rule="nonzero" />
        <path d="M273.5 189.501C 254.83301 183.83401 216.5 185.168 216.5 185.168L216.5 185.168L247.83301 259.001C 247.83301 259.001 250.735 257.54602 251.09702 258.34C 268.096 242.448 281.295 222.57599 289.21002 200.194C 288.586 199.714 292.167 195.168 273.5 189.501z" stroke="none" fill="#FFFFFF" fill-rule="nonzero" />
		<g>
            <path d="M174.319 221.751L174.319 221.371L174.008 221.371L174.319 221.751" stroke="none" fill="none" />
			<g>
                <path d="M174.319 221.751L174.319 221.371L174.008 221.371L174.319 221.751" stroke="none" fill="none" />
                <path d="M209.842 276.622C 208.443 269.264 202.87599 244.923 202.87599 244.923C 202.87599 244.923 210.267 242.981 211.99998 238.75C 213.73299 234.521 209.81099 228.005 209.62498 225.437C 208.82399 217.771 205.81198 186.374 200.87498 179.874C 197.99998 176.08899 184.77899 168.62099 183.74998 168.66599C 178.99998 168.87398 169.49998 189.56198 161.56198 191.43698C 156.27098 192.68698 152.53398 187.53998 153.38998 187.92899C 153.37498 187.91798 153.35698 187.90898 153.34798 187.89998C 153.34798 187.89998 153.35698 187.30798 152.47197 184.52698C 151.58698 181.73598 149.73297 178.80798 149.38997 178.14598C 149.05698 177.48198 148.05096 176.03699 148.01598 175.87099C 147.98798 175.708 147.62198 174.777 147.36298 173.081C 146.86998 169.80899 147.09598 167.61699 147.11497 167.418C 147.12497 167.218 147.21597 166.625 147.24298 166.505C 147.26398 166.379 147.21498 166.166 147.06398 166.129C 146.90598 166.102 146.48398 165.999 146.04298 166.453C 145.12299 167.381 145.08098 167.557 145.06398 167.714C 145.03198 167.86101 145.12698 168.141 145.09898 168.46501C 144.99898 169.49402 144.81898 170.281 144.35799 171.03201C 143.89899 171.792 143.59999 172.05301 142.94998 171.99101C 142.28899 171.93102 141.73898 171.40701 141.65898 170.05002C 141.57298 168.69402 141.30598 168.22902 141.03398 167.90901C 140.76299 167.57501 140.14497 167.42201 139.93398 167.43501C 139.72598 167.43501 139.55197 167.62102 138.12198 167.97202C 136.70398 168.33301 134.44998 168.45401 134.11798 168.46802C 133.77898 168.48802 132.54198 168.61302 132.53297 168.61601C 132.79198 169.58401 127.33498 168.09601 126.41698 168.83202C 124.54198 170.33202 123.66598 180.07202 122.74998 185.12302C 122.74898 185.12701 122.74898 185.13202 122.74798 185.13802L122.74798 185.13802L92 188.25L81.25 213.25C 81.25 213.25 84.5 262.75 84.5 263.5C 84.5 264.25 152.5 248.75 152.5 248.75L152.5 248.75L178.155 248.195C 178.155 248.195 178.161 248.214 178.166 248.263C 178.347 249.742 181.191 273.367 181.77 277.066L181.77 277.066L183.69301 290.556C 183.85101 291.702 184.02701 292.861 184.22101 294.004C 187.197 293.317 190.14401 292.554 193.05 291.68298C 192.81401 290.162 192.571 288.628 192.304 287.04297C 191.923 285.11996 191.659 283.27097 191.349 281.40295L191.349 281.40295L190.535 276.76794C 189.793 272.39294 185.49301 247.15494 185.49301 247.15494L185.49301 247.15494L190.00002 244.30894L195.21602 245.90294C 195.35503 246.54294 195.49402 247.23694 195.65202 247.98894C 196.72203 253.22495 198.18202 261.07593 200.45903 271.66095L200.45903 271.66095L202.18803 281.93994C 202.23503 282.37595 202.79204 285.33295 203.30504 288.20593C 206.04803 287.15292 208.75005 286.01794 211.41504 284.81293L211.41504 284.81293L209.842 276.622z" stroke="none" fill="#FFFFFF" fill-rule="nonzero" />
			</g>
		</g>
	</g>
	<g>
        <path d="M158.875 89.083C 153.20801 89.916 144.95801 94.541 145.33301 97.916C 145.56401 100.008 157.38301 100.328 162.70801 100.708C 168.033 101.088 168.912 95.969 168.626 93.187C 168.34 90.405 164.839 88.207 158.875 89.083z" stroke="none" fill="#F5D4B7" fill-rule="nonzero" />
        <path d="M197.547 179.938C 194.734 179.645 196.041 184.205 196.008 184.667L196.008 184.667L196.008 184.67601C 197.431 190.04301 198.612 195.397 199.526 200.24301C 199.537 200.72101 199.573 201.14001 199.632 201.48001C 200.035 203.59201 200.869 210.41801 202.473 225.837C 202.84401 230.972 203.16801 236.32901 203.382 240.834C 203.528 240.824 213 241.373 213 241.373C 213 241.373 212.625 228.123 209.687 211.498C 206.749 194.874 202.344 180.438 197.547 179.938z" stroke="none" fill="#F5D4B7" fill-rule="nonzero" />
        <path d="M172.007 138.188C 172.433 135.843 171.945 134.684 171.177 133.313C 170.422 131.946 168.962 130.667 167.075 129.427C 165.25 128.213 161.125 124.573 160.72499 124.229004C 160.33499 123.893005 158.409 122.07201 157.963 121.71001C 157.499 121.353004 156.59999 120.605 154.62599 119.604004C 149.84299 117.192 145.997 118.997 145.84799 119.08C 145.702 119.162 144.99199 119.736 144.312 120.382C 143.642 121.017006 144.14499 122.245 144.402 122.693C 144.402 122.693 169.786 141.3 169.83699 141.73401L169.83699 141.73401L169.85599 141.74802C 169.856 141.748 171.654 140.104 172.007 138.188" stroke="none" fill="#F5D4B7" fill-rule="nonzero" />
        <path d="M161.505 115.271C 160.671 115.52801 160.192 115.79401 159.957 116.059006C 159.911 116.11201 159.893 116.170006 159.87401 116.226006C 159.854 116.270004 159.854 116.316 159.854 116.36001C 159.854 116.39701 159.854 116.42901 159.854 116.462006C 159.863 116.506004 159.881 116.54301 159.891 116.58301C 159.91301 116.629005 159.93701 116.67801 159.96501 116.72401C 159.98401 116.754005 160.00201 116.78701 160.02802 116.81901C 160.06502 116.87701 160.11702 116.93201 160.16801 116.990005C 160.19002 117.018005 160.21501 117.04101 160.24202 117.06701C 160.30602 117.13101 160.37701 117.19901 160.45602 117.26601C 160.47502 117.285 160.49303 117.30301 160.51602 117.31701C 160.60503 117.39401 160.69803 117.46501 160.78902 117.54201C 160.80801 117.55101 160.81601 117.561005 160.83601 117.575005C 160.947 117.656006 161.05902 117.73 161.17001 117.80601C 161.17401 117.811005 161.17902 117.811005 161.18402 117.81501C 161.30902 117.89601 161.42902 117.97301 161.54501 118.04901C 161.67001 118.12301 161.84601 118.16201 162.06001 118.16701C 162.26302 118.17601 162.514 118.14801 162.78401 118.100006C 163.67401 117.924 164.81302 117.475006 165.77701 117.01301C 165.77701 117.018005 165.76701 117.01301 165.75801 117.018005C 165.70201 117.037 163.93701 114.12401 164.00601 114.038C 163.396 114.504 162.617 114.921 161.505 115.271" stroke="none" fill="#F5D4B7" fill-rule="nonzero" />
        <path d="M127.421 132.678C 127.491 132.706 127.553 132.747 127.625 132.775C 127.616 132.76599 127.61 132.76099 127.605 132.752C 127.244 132.377 127.216 132.293 127.090004 131.783C 126.953 131.252 126.606 130.601 126.46001 130.233C 126.30301 129.862 125.605 128.604 125.336006 127.789C 125.06801 126.973 124.94701 126.475 124.893005 125.657C 124.685005 125.04 124.52701 123.812 124.622 122.701996C 124.703 121.71999 124.921005 120.589 125.544 117.409996C 125.965996 115.322 125.305 112.91699 125.282 110.689995C 125.262 108.97299 125.091995 104.753 125.139 100.506L125.139 100.506L125.139 100.492C 124.845 100.591995 87.042 92.481995 87.308 92.44199C 87.312996 92.44199 87.323 92.437 87.331 92.437C 87.630005 89.307 87.449 85.09599 87.28 81.903C 88.257996 72.312 89.733 61.21 93.122 53.809C 95.741005 48.117996 95.391 49.992996 96.685005 47.310997C 96.757 47.166996 96.852005 46.997997 96.867004 46.798996C 96.881004 46.664997 96.771 45.911995 96.74901 45.672997C 96.74901 45.668995 96.74901 45.668995 96.74901 45.663998C 96.672005 45.686996 87.45901 43.107 75.99601 69.416C 71.198 80.438 77.583 108 77.583 108L77.583 108L87.562 111.313L94.062 107.782005L109.437 104.62601L115.717995 107.68901C 115.717995 107.68901 113.784 113.57001 113.768 113.57001C 113.768 113.574005 113.763 113.574005 113.763 113.574005C 113.763 113.574005 113.768 113.850006 113.736 114.281006C 113.628 116.394005 112.46 118.519005 111.486 119.687004C 110.173 121.277 107.872 122.387 106.562 123.00001C 105.242 123.603004 103.117 124.05201 102.992 124.073006C 102.879 124.100006 102.172 124.19601 102.057 124.214005C 101.943 124.22301 101.725 124.295006 101.422 124.355C 101.106995 124.409004 100.76199 124.41801 100.59 124.490005C 100.504 124.522 100.438995 124.564 100.385994 124.61301C 100.29099 124.69001 100.23999 124.78001 100.215 124.880005C 100.21 124.88901 100.20599 124.908005 100.20599 124.922005C 100.186 125.017006 100.186 125.11201 100.201 125.198006C 100.264 125.51101 100.603 125.94701 100.643 126.023C 100.784996 126.29401 101.6 127.068 102.935 126.769005C 104.690994 126.37501 105.826 126.023 106.998 125.645004C 108.18 125.26 109.747 124.582 109.986 124.373C 110.229 124.171 110.879 123.675 110.983 123.618004C 110.983 123.61301 110.987 123.61301 110.987 123.61301C 111.122 123.490005 111.25 123.37401 111.377 123.26501C 111.431 123.21901 111.485 123.16101 111.54 123.119C 111.553 123.108 111.562004 123.09901 111.576004 123.088005C 111.783005 125.565 108.812004 133.002 108.812004 133.002C 108.812004 133.002 101.89001 135.465 102.329 135.13899C 102.329 135.13899 102.321 135.13899 102.321 135.14299C 101.757996 135.41899 100.93 135.71799 100.091995 135.062C 100.091995 135.062 99.27699 134.11 98.27899 132.847C 97.68099 132.092 97.02099 131.23 96.42399 130.389C 96.00199 129.796 95.70099 129.31201 95.47899 128.91301C 95.04799 128.17902 94.87599 127.70801 94.79999 127.41401C 94.790985 127.39101 94.78099 127.365005 94.78099 127.34701C 94.59499 126.85801 94.43999 126.06601 94.43999 126.06601C 93.19099 125.91101 91.87698 125.62601 90.66399 125.18301C 90.67299 125.187004 90.67299 125.199005 90.68298 125.20801C 90.78398 125.298004 82.109985 127.19001 82.109985 127.19001L82.109985 127.19001L91.084984 163.753C 91.084984 163.753 107.834984 190.086 118.334984 185.003C 119.89999 184.24501 122.624985 178.908 121.50198 177.086C 120.347984 175.219 102.584984 145.75299 102.584984 145.75299C 102.584984 145.75299 127.182 132.572 127.421 132.678z" stroke="none" fill="#F5D4B7" fill-rule="nonzero" />
        <path d="M161.468 232.059C 164.74901 234.237 165.89 234.74701 169.477 236.24701C 170.61801 236.785 173.629 236.173 174.917 234.24501C 174.89401 234.255 174.871 234.28201 174.85301 234.29701C 174.84302 234.30101 174.84302 234.30101 174.83401 234.30101C 174.75002 234.352 156.97302 220.40302 154.65602 219.578C 153.83102 219.286 149.29102 220.952 149.87502 221.791C 150.39801 222.546 152.59302 224.83301 152.64502 224.921C 155.744 227.331 159.642 230.547 161.468 232.059" stroke="none" fill="#F5D4B7" fill-rule="nonzero" />
        <path d="M123.667 206.333L93.938 189.312C 93.938 189.312 94.805 197.745 94.8 197.877C 94.805 197.882 94.805 197.882 94.809006 197.888C 96.978004 199.828 100.37501 202.15201 100.912 202.517C 101.11 202.648 102.492004 203.56 102.787 203.89C 103.152 204.287 106.82 206.896 107.100006 207.091C 107.368004 207.27301 111.32901 209.459 113.729004 210.737C 113.815 210.69 112.059006 212.128 112.086006 212.082C 111.242004 212.138 110.630005 212.526 109.699005 212.823C 105.532005 215.164 108.005005 220.034 108.398 223.427C 109.195 226.286 110.202 231.25 113.909004 231.713C 116.731 232.052 123.191 230.286 126.606 229.586C 127.090004 228.73 132.041 228.423 131.98 228.492C 132.85399 228.231 134.026 227.819 134.381 227.88501C 134.594 227.92201 133.607 228.97002 133.035 230.04001C 132.46 231.12001 128.906 241.61201 125.597 247.201C 124.487 249.49 125.013 248.545 124.337 250.209L124.337 250.209L124.337 250.214L131.04199 251.74901L141.875 224.24802L123.667 206.333z" stroke="none" fill="#F5D4B7" fill-rule="nonzero" />
        <path d="M89.943 227.711C 91.097 229.852 94.422 234.343 94.585 234.59799C 94.747 234.84799 95.463 235.61899 96.307 236.56299C 97.153 237.50299 97.878 238.32498 98.082 238.56499C 98.286 238.79698 99.871 240.44199 100.28 240.81898C 100.687996 241.19398 101.160995 241.95898 101.504 242.27798C 102.676994 243.33098 106.995995 247.08499 107.412994 247.39499C 107.829994 247.71298 109.88999 249.094 110.260994 249.14499C 113.97099 249.61499 115.79199 247.583 116.16799 246.98099C 116.54799 246.39299 116.619995 246.13899 116.385994 245.25699C 116.381 245.31999 102.063995 234.56299 92.563995 213.87498C 92.196 213.07399 88.90099 209.08398 85.87599 211.49998C 83.39199 213.48398 85.18799 218.23799 85.18799 218.23799L85.18799 218.23799L85.18799 218.26498C 86.131 220.213 88.956 225.885 89.943 227.711" stroke="none" fill="#F5D4B7" fill-rule="nonzero" />
        <path d="M61.833 229.75C 62.791 226.166 54.846 226.965 54.273 226.835C 51.795998 230.84401 49.167 244.46 47.828 250.837C 47.596 251.55501 47.284 252.709 46.917 254.201C 48.741 256.055 50.605 257.867 52.521 259.61902C 53.904 254.238 61.579 230.703 61.833 229.75z" stroke="none" fill="#F5D4B7" fill-rule="nonzero" />
	</g>
	<g>
		<g>
            <path d="M292.612 136.589C 292.612 136.598 292.617 136.608 292.617 136.612C 292.617 136.612 292.617 136.621 292.622 136.631C 292.617 136.622 292.617 136.612 292.617 136.612C 292.616 136.608 292.612 136.599 292.612 136.589" stroke="none" fill="#A3080C" fill-rule="nonzero" />
            <path d="M274.557 187.911C 270.126 186.93 259.634 184.82399 245.49101 183.525C 231.35501 182.23799 219.78401 181.13399 218.19402 180.96199C 216.73802 180.81699 216.21101 179.48299 214.88902 178.81898C 210.09702 176.41599 201.04102 174.18599 195.36603 172.18799C 193.96202 171.702 193.03903 170.45898 191.10103 168.096C 189.92303 166.655 189.12602 166.00499 188.11803 165.092C 187.51402 164.54 186.19902 163.428 185.84703 163.159C 185.50403 162.881 185.26303 162.084 185.56003 160.536C 185.85703 158.982 186.78503 152.922 186.70903 145.866C 186.68903 143.972 187.52303 142.759 188.41003 142.316C 188.88704 142.075 191.99203 140.694 191.78304 137.642C 191.56404 134.553 190.61003 130.244 193.09503 124.179C 195.50003 118.303 198.50304 107.815 198.86603 100.895996C 199.25102 93.546 197.40503 88.80499 194.50504 86.238C 193.37404 85.246 192.03903 83.747 193.12903 80.547C 194.29202 77.104 196.40402 67.701 194.32903 61.480995C 193.86403 60.099995 193.33702 60.090996 193.02002 59.923996C 192.70203 59.761997 191.19502 58.607994 190.62901 56.069996C 189.86801 52.723995 187.42201 40.831997 178.199 28.742996C 173.313 22.324997 168.095 18.507996 166.011 16.969997C 164.58301 16.040997 162.076 14.293997 159.077 12.6989975C 154.786 10.429997 151.37999 8.6989975 144.52899 6.4819975C 143.881 6.2779975 142.41399 5.8289976 140.476 5.3119974C 140.471 5.3119974 140.454 5.3119974 140.454 5.3119974C 140.454 5.3119974 134.61699 3.7499974 128.305 3.0129974C 127.22699 2.9129975 125.75199 2.7769973 124.077995 2.6629975C 117.579994 2.2829976 115.20799 2.6819975 111.828995 3.0219975C 111.467995 3.0569975 111.1 3.1119974 110.73699 3.1609974C 110.06299 3.2509973 109.36599 3.3549974 108.63699 3.4689975C 98.59699 5.1879973 88.382996 9.896997 83.41499 12.265997C 80.60999 13.597997 78.12899 14.983997 75.84699 16.283997C 75.78399 16.323997 75.702995 16.369997 75.660995 16.394997C 75.073 16.753996 74.15199 17.266996 73.254 17.759996C 71.85 18.551996 70.507996 19.293997 69.208 19.928997C 65.187 21.884996 61.65 22.885998 59.064 23.782997C 58.593998 23.958998 58.201 24.107998 57.896 24.211998C 56.032 24.937998 54.844 25.687998 54.626 26.924997C 54.228 29.144997 56.841 31.204998 55.908 34.746C 53.611 43.454 43.782 51.811996 42.206 52.776C 37.641003 55.562 37.926003 57.501 37.75 58.493C 37.75 59.415 37.939 60.439 38.464 61.545C 39.985 64.768 42.799 67.53 44.176003 70.443C 45.557003 73.358 46.344 78.467 45.311 84.439C 44.325 90.214005 44.016003 91.495 43.503002 92.554C 42.993004 93.617004 41.964 95.682 43.383003 98.138C 44.808002 100.601 47.811005 103.113 49.695004 104.559C 50.697002 105.333 51.216003 106.034996 50.473003 107.43C 49.249004 109.713 49.562004 115.096 50.721004 118.108C 52.471004 122.703 54.526005 127.083 56.433006 129.898C 58.342007 132.711 61.748005 137.499 63.751007 139.23099C 65.74601 140.97398 66.020004 143.995 65.98101 145.87C 65.93901 147.735 65.67701 153.023 71.11101 156.332C 73.78901 157.978 74.02901 157.564 75.01101 158.371C 75.99301 159.164 76.45501 159.576 77.13401 161.717C 77.81301 163.84999 80.90201 171.329 85.155014 176.594C 86.39601 178.123 87.085014 179.207 87.23302 179.458C 87.38302 179.708 87.61401 179.986 87.07602 181.24599C 86.541016 182.50699 84.39402 189.68498 82.68102 197.10498C 82.36802 198.46597 81.90802 200.25497 80.20102 201.09499C 78.49102 201.91899 74.67202 204.02899 73.28202 204.79698C 71.88302 205.56598 71.19302 205.98398 69.58402 207.98499C 68.86802 208.87498 68.34702 209.39699 67.89502 209.93999C 67.63502 210.25398 67.52002 210.45499 66.16002 211.16399C 64.98202 211.77599 47.50002 217.92699 28.962017 229.26698C 28.503017 229.54398 28.074017 229.78998 27.648018 230.02698C 28.740017 231.73198 29.854017 233.42097 31.013018 235.06998C 35.17502 232.96597 45.10402 227.93298 46.665016 227.15498C 47.897015 226.53398 49.430016 226.29298 50.669018 226.26299C 51.415016 226.24898 52.05502 226.30998 52.462017 226.41098C 53.294018 226.61497 54.726017 226.93098 56.05602 227.23499C 56.17902 227.26198 56.302017 227.29199 56.42902 227.31898C 56.51102 227.33798 56.59202 227.35599 56.67702 227.37999C 57.22602 227.51498 57.73402 227.63599 58.14402 227.74599C 58.16702 227.75499 58.18602 227.75499 58.20902 227.76498C 58.40802 227.82199 58.58902 227.87099 58.72802 227.91298C 59.90902 228.30199 60.537018 230.51698 59.898018 232.53297C 59.78502 232.91298 59.41702 234.19197 58.878017 236.08298C 58.610016 237.03297 58.303017 238.12698 57.96702 239.34097C 57.629017 240.55597 57.260017 241.89197 56.871017 243.30997C 55.504017 248.27696 53.899017 254.23796 52.518017 259.61896C 56.218018 262.99194 60.100018 266.16696 64.13402 269.14996C 64.58602 265.65695 65.06102 262.01895 65.429016 259.37296C 66.39301 252.46895 71.90802 226.89395 73.46502 221.07895C 74.59802 216.84795 75.18702 214.91995 76.67602 214.25294C 77.12302 214.05894 77.63102 213.76195 77.92502 213.61795C 78.21902 213.48195 78.86302 213.32594 78.66402 214.44695C 78.43602 215.77695 77.28802 221.20395 75.599014 238.81395C 74.42602 251.03094 74.39802 261.85095 74.820015 268.35895C 75.002014 271.12994 75.04901 275.04694 79.28902 273.34894C 84.24302 271.36993 101.13101 265.31393 110.153015 262.53394C 124.680016 258.05295 151.90802 252.06793 178.15102 248.19493L178.15102 248.19493L185.48901 247.15193C 185.48901 247.15193 189.78502 272.39392 190.52501 276.76892L190.52501 276.76892L191.34001 281.39993L190.533 276.76892C 189.787 272.39392 185.496 247.15192 185.496 247.15192C 186.524 247.01091 187.559 246.87892 188.578 246.74892C 190.92801 246.45192 193.134 246.17491 195.21 245.90492L195.21 245.90492L202.875 244.92293C 206.462 244.46393 209.539 244.06993 212.147 243.72893C 212.147 243.72893 217.101 266.63092 218.964 274.85794C 219.09401 275.39893 219.205 275.88693 219.298 276.29495L219.298 276.29495L220.21501 280.49896C 220.22002 280.49896 220.225 280.49896 220.22902 280.49896L220.22902 280.49896L219.31702 276.29495C 217.80502 269.78796 212.16202 243.72995 212.16202 243.72995L212.16202 243.72995L220.00902 242.71895C 222.33002 242.42294 225.28702 242.05194 226.16801 242.00995C 228.01201 241.93295 228.81702 240.88995 227.40901 240.46695C 226.393 240.16995 224.04501 239.93495 222.85701 239.90594C 222.404 239.90094 221.57901 239.89095 221.08601 239.88295C 219.27002 239.85095 218.751 239.49295 218.35202 236.81595C 217.22102 228.96394 212.84702 209.50195 209.70602 199.24095C 206.66603 189.34195 205.91502 186.49196 205.18303 184.31195C 204.54303 182.43495 205.78304 182.31995 206.37903 182.34695C 208.59402 182.45296 211.66203 183.60295 212.54202 185.49796C 214.48903 189.71996 227.80803 224.60596 233.15602 237.61195C 236.53001 245.80495 240.46002 255.66795 244.17203 264.45395C 246.55003 262.49896 248.84402 260.43994 251.09103 258.33694C 244.18204 243.14595 228.80003 208.73195 220.69003 191.31595C 220.39803 190.68895 220.00403 189.67395 219.80504 189.07794C 219.73604 188.87894 219.70703 188.70193 219.70703 188.54494C 219.71703 187.43394 221.18604 187.27893 221.91302 187.34993C 224.77603 187.63693 250.78502 189.35193 257.88602 190.02992C 262.57202 190.47292 267.247 191.18793 270.37003 191.74492C 271.09402 191.87892 271.73102 191.99992 272.269 192.10591C 272.936 192.2389 273.437 192.34491 273.76102 192.43391C 276.078 193.03792 280.165 194.6549 283.949 196.68391C 285.514 197.51791 287.295 198.73291 289.204 200.1979C 289.77902 198.56491 290.35202 196.92891 290.87302 195.27591C 289.51102 194.3309 287.98 193.3659 286.47803 192.55891C 282.157 190.256 278.51 188.791 274.557 187.911M62.776 101.66C 62.069 101.964005 61.43 102.045006 60.941 101.081C 59.755 98.736 58.854004 94.56 58.510002 91.847C 58.156002 89.136 57.614002 81.044 57.785004 76.623C 57.974003 72.199005 57.110004 69.727005 55.529003 67.611C 53.944004 65.498 52.925003 64.031 52.536003 63.319C 52.047005 62.431 52.374004 61.824 53.309002 61.146C 53.763 60.828 54.690002 61.019 55.407 60.87C 56.825 60.585 61.56 58.868 65.088 56.100998C 68.607994 53.334 74.217995 47.982 78.024994 45.921997C 81.81999 43.861996 83.505 42.922997 87.94699 42.389996C 88.73499 42.297997 89.91699 42.718994 88.58299 43.733997C 87.24999 44.748997 82.97499 46.263996 77.98999 53.785995C 74.92899 58.387997 74.42999 61.045998 73.46099 63.110996C 72.48699 65.174995 71.55599 65.758995 70.01499 67.42999C 69.26499 68.22699 67.73699 69.90199 67.18599 72.33099C 66.650986 74.76199 64.43799 83.326 65.73799 96.27899C 65.89099 97.786995 66.51199 99.79399 65.09799 100.523994C 64.225 100.977 63.476 101.361 62.776 101.66M68.88 119.113C 68.127 118.577995 65.048996 114.410995 63.549995 109.78C 63.384995 109.291 63.204994 108.047 64.016 107.692C 64.681 107.407 65.563995 106.895004 66.022995 106.677C 66.48799 106.443 67.646996 106.139 67.80699 107.810005C 67.968994 109.48501 68.11499 111.45901 70.023994 116.40001C 70.369995 117.28301 70.440994 117.559006 70.531 117.91301C 70.778 118.939 69.577 119.609 68.88 119.113M75.15 103.377C 74.946 103.412 72.834 103.667 71.695 103.88C 70.988 104.009995 70.26 104.273994 70.179 103.592995C 70.084 102.81899 69.857 101.797 69.79 101.520996C 69.729004 101.23399 69.867004 100.962 70.209 100.881C 71.048 100.687 74.29 100.142 74.603 100.126C 74.916 100.122 75.232994 100.228 75.368996 100.877C 75.492 101.528 75.647995 102.221 75.685 102.503C 75.723 102.793 75.804 103.277 75.15 103.377M76.302 92.799C 76.107 91.812004 75.834 90.122 75.922005 89.07001C 75.952 88.65101 76.079 87.603004 76.58201 87.03801C 77.29301 86.23201 78.23801 85.49901 78.851006 85.003006C 79.966 84.090004 79.73401 81.727005 79.815 80.371C 80.061005 76.432 79.711006 63.993004 87.783005 52.092003C 88.094 51.640003 88.411 51.223003 88.72301 50.829002C 88.81801 50.711002 88.91301 50.602 89.00801 50.486004C 89.24001 50.213005 89.47101 49.950005 89.710014 49.707005C 89.81001 49.598003 89.90901 49.494003 90.014015 49.394005C 90.29902 49.113007 90.58901 48.845005 90.87801 48.602005C 90.92001 48.569004 90.957016 48.532005 90.99601 48.498005C 91.32301 48.234005 91.65101 47.995007 91.97701 47.768005C 92.09501 47.691006 92.21301 47.615005 92.33101 47.546005C 92.55601 47.398006 92.78301 47.265007 93.01001 47.136005C 93.13901 47.066006 93.26701 46.994007 93.39901 46.927006C 93.64701 46.800007 93.90201 46.681007 94.15401 46.568005C 94.25001 46.528004 94.34401 46.482006 94.43901 46.438004C 94.766014 46.301003 95.10201 46.179005 95.43501 46.065002C 95.57801 46.016003 95.71601 45.975002 95.85701 45.931004C 96.08101 45.861004 96.30401 45.794003 96.52701 45.732002C 96.603004 45.713 96.67301 45.686 96.75001 45.667004C 96.75001 45.671005 96.75001 45.671005 96.75001 45.676003C 98.393005 45.238003 100.07801 44.992004 101.78001 44.703003C 106.58501 43.887 112.186005 44.65 115.06701 45.567C 117.35701 46.292 118.517006 46.848 119.28301 46.125C 120.05201 45.405 122.058014 43.131 122.90901 42.325C 123.02601 42.211002 123.11801 42.086002 123.181015 41.963C 123.207016 41.921 123.221016 41.878002 123.24001 41.836002C 123.27101 41.755 123.29801 41.669003 123.31101 41.584003C 123.31601 41.538002 123.32601 41.489002 123.32601 41.438004C 123.32601 41.357002 123.31601 41.276005 123.30301 41.190002C 123.29401 41.148003 123.29401 41.100002 123.27301 41.058002C 123.24201 40.940002 123.19001 40.826004 123.11901 40.717003C 122.932014 40.406002 122.63501 40.129 122.26701 39.908005C 121.333015 39.359005 111.95502 32.477005 99.31301 32.169006C 86.960014 31.860006 76.93401 36.231007 74.27501 37.146008C 73.73701 37.327007 73.461006 37.42201 73.14501 37.426006C 72.83201 37.435005 71.75401 37.067005 72.153015 36.288006C 72.59102 35.456005 73.68701 34.175007 74.82601 33.137005C 76.02101 32.060005 81.86601 26.558004 87.63901 24.010006C 88.70701 23.542006 88.96701 23.347006 89.65101 23.081005C 90.52501 22.750006 91.04201 20.780005 89.11101 20.775005C 87.13201 20.761005 86.34401 20.983006 85.29901 21.146006C 84.252014 21.320005 83.67701 20.852005 84.33801 19.955006C 84.99101 19.061007 86.28201 18.069006 88.612015 16.804005C 93.67101 14.047005 102.92502 11.141005 107.30002 10.184005C 113.00502 8.935005 113.70202 8.854005 117.48802 8.6220045C 121.02902 8.418005 123.86102 8.668004 125.20102 8.722005C 136.54402 9.153005 149.60703 12.907005 159.72002 19.566006C 169.33601 26.641006 183.17502 38.428005 185.91801 67.52501C 186.24701 71.017006 186.01602 72.99601 185.88101 73.87001C 185.76102 74.74401 184.76901 76.35101 183.89801 74.52601C 181.029 68.51301 176.59401 60.64401 171.589 53.18501C 171.292 52.74201 170.99 52.52901 170.74501 52.49701C 170.64201 52.47601 170.55501 52.493008 170.46701 52.53001C 170.445 52.54401 170.43001 52.56701 170.40701 52.58301C 170.35901 52.62001 170.30801 52.66601 170.27101 52.72901C 170.25201 52.77301 170.229 52.81901 170.21501 52.866013C 170.19202 52.929012 170.17801 53.00001 170.169 53.07001C 170.15901 53.13301 170.149 53.19101 170.149 53.256012C 170.149 53.40401 170.159 53.567013 170.201 53.74501C 170.326 54.27301 171.92 62.16301 171.979 63.26201C 172.048 64.35801 171.511 67.04801 175.598 72.01201C 177.26701 74.04901 178.74901 75.78901 179.51001 78.79401C 180.26001 81.78801 180.51501 83.06901 180.52 83.38701C 180.531 83.70001 180.891 84.59201 179.445 84.601006C 178.00801 84.605 172.52101 84.20701 170.173 84.26C 167.823 84.316 151.604 85.907005 145.57 87.189C 139.535 88.473 136.28801 89.993004 133.18901 93.249C 132.44301 94.032 131.40001 94.762 131.16301 94.829C 130.93901 94.892006 130.15201 94.875 128.61401 94.771C 127.082016 94.671005 124.42501 95.047005 123.030014 95.677C 121.626015 96.305 120.625015 96.889 118.93401 96.200005C 116.51701 95.22201 112.37101 90.757 101.60602 91.283005C 95.126015 91.600006 91.806015 91.77701 87.30902 92.442C 87.04702 92.484 86.776024 92.523 86.50702 92.565C 86.33602 92.593 86.15902 92.62 85.98402 92.65C 85.889015 92.664 85.790016 92.678 85.69002 92.696C 83.85902 92.995 81.791016 93.38 79.238014 93.878C 78.88402 93.945 78.53601 94.017 78.17001 94.086C 77.175 94.285 76.487 93.839 76.302 92.799M175.427 90.023C 175.427 90.366005 175.01 90.721 174.58301 90.793C 174.16101 90.86 171.26501 91.125 170.802 91.159C 170.348 91.190994 169.903 90.940994 169.865 90.51299C 169.828 90.090996 169.73401 89.09 169.70801 88.827995C 169.66101 88.58199 169.651 88.239 170.24101 88.162994C 170.58401 88.120995 173.60402 87.84999 174.71802 87.717995C 175.13503 87.66899 175.40802 88.045 175.41801 88.409996C 175.418 88.776 175.418 89.683 175.427 90.023M161.881 93.274C 160.985 92.644005 159.41 91.652 158.456 91.304C 157.79799 91.068 158.028 90.245 158.96599 90.113C 162.22899 89.638 164.32199 89.638 165.94499 90.651C 167.13199 91.386 167.92 92.813 167.55699 94.071C 167.12999 95.515 166.56499 95.201996 165.85599 95.19C 165.147 95.177 162.766 93.907 161.881 93.274M163.767 99.64C 163.193 100.027 161.316 99.682 160.634 99.415C 159.235 98.866 158.242 98.486 156.296 97.251C 155.02501 96.445 152.81601 96.046 150.88301 96.63C 149.60901 97.015 148.585 97.337 147.46301 97.77C 146.33902 98.201 146.10901 97.176994 146.40302 96.739C 146.69301 96.302 148.47202 94.219 150.83202 93.333C 151.32802 93.143 152.33801 93.039 152.83401 93.029C 154.35501 92.985 156.24002 93.727 157.66801 94.769C 159.10802 95.819 161.39401 97.531 162.89601 98.173C 163.6 98.476 165.129 98.699 163.767 99.64M116.853 150.293C 111.160995 152.286 109.564995 150.284 109.058 149.69C 108.553 149.097 109.175995 148.518 109.779 148.237C 111.132996 147.607 112.945 146.235 113.86 145.342C 114.78 144.45 116.567 141.345 117.857 140.254C 118.469 139.733 121.775 138.609 124.262 139.795C 127.219 141.204 131.823 141.34999 134.65 140.982C 137.47499 140.60199 138.55199 138.53699 139.165 137.318C 139.77599 136.088 141.275 135.638 142.06299 135.314C 144.232 134.427 147.10298 131.45099 147.39699 131.148C 147.691 130.83499 148.58598 130.39499 150.00899 131.22899C 152.59898 132.75099 153.91599 134.76498 156.32098 137.497C 158.72598 140.23099 161.57199 140.65799 162.40599 140.711C 163.241 140.76399 163.76 141.731 163.79799 141.997C 163.844 142.263 163.14899 143.18799 162.62999 143.577C 162.109 143.966 161.82199 144.655 157.217 144.76399C 134.109 145.334 123.711 147.893 116.853 150.293M148.195 153.074C 146.824 153.783 142.746 155.32 140.716 155.711C 138.679 156.102 132.216 157.412 131.125 157.5C 129.767 157.605 127.864 157.198 126.212 156.068C 125.88 155.83899 125.429 154.95099 126.633995 154.773C 128.87 154.441 132.48 152.763 145.612 152.094C 147.023 152.021 147.686 151.99199 148.024 151.984C 148.362 151.977 149.576 152.365 148.195 153.074M117.771 182.229C 113.185005 182.985 100.976006 179.403 93.038 159.813C 90.992004 154.774 93.236 149.76001 95.205 148.746C 96.373 148.153 97.005005 147.912 97.403 147.812C 97.835 147.703 99.913 147.43199 100.149 149.76999C 100.336 151.661 104.007 167.18698 108.943 172.32098C 110.16 173.59398 111.122 173.51599 111.436005 172.20099C 111.706 170.99599 112.23801 169.411 112.393005 168.80699C 112.50201 168.37099 113.69301 167.055 114.368004 168.73299C 115.82001 172.29399 117.57201 176.956 118.72301 178.82298C 119.849 180.645 119.487 181.945 117.771 182.229M118.676 131.007C 119.107 131.60501 119.374 132.692 119.341 133.172C 119.297005 133.726 117.403 134.731 115.434006 132.521C 113.464005 130.306 113.84901 127.244995 114.66401 125.94499C 115.96401 123.870995 118.518005 124.90399 118.27101 125.64399C 117.418 128.206 118.238 130.405 118.676 131.007M104.041 102.32C 102.568 102.272 100.983 102.091 98.294 103.087C 95.284 104.199 93.349 105.65 91.949 106.508995C 90.509995 107.406 88.987 107.79099 88.477 107.827995C 87.96999 107.871994 86.121994 107.629 87.395 106.29099C 87.732994 105.924995 88.544 105.648994 89.774994 104.75199C 90.65499 104.10399 91.30699 103.64199 92.30799 102.79899C 94.09199 101.27899 97.72799 99.081985 99.31299 98.886986C 100.47599 98.747986 102.53199 98.96799 103.75499 99.96899C 105.028 101.014 105.517 102.367 104.041 102.32M78.714 104.93C 78.868996 103.966 79.923 101.424 82.144 100.687C 82.443 100.597 83.549995 100.237 84.475 99.99899C 85.566 99.72399 86.739 99.481995 87.337 99.37399C 88.944 99.093994 89.283 100.31699 88.270996 101.11399C 87.607994 101.64199 86.548996 102.329994 85.613 103.08799C 84.19 104.25199 82.823 105.54599 81.766 106.42499C 80.479 107.497 78.394 106.909 78.714 104.93M86.259 132.611C 86.254005 132.607 86.25 132.60199 86.25 132.60199C 86.241 132.58798 86.235 132.579 86.227 132.56699C 85.828995 132.00798 85.457 131.41998 85.11 130.82199C 85.037 130.68999 84.964 130.555 84.888 130.42299C 84.542 129.78099 84.218 129.13199 83.963 128.44899C 83.465 127.12599 84.298996 126.93099 84.854996 127.21899C 85.409996 127.51598 87.034 128.46298 88.769 128.82898C 89.828995 129.04698 90.458 128.53899 90.707 127.77498C 90.744 127.66098 90.792 127.51998 90.844 127.36698C 90.874 127.29998 90.897 127.22798 90.92 127.153984C 90.934 127.109985 90.947 127.06399 90.964 127.014984C 90.986 126.931984 91.006 126.85098 91.023994 126.764984C 91.038994 126.720985 91.04399 126.67499 91.051994 126.63098C 91.073 126.542984 91.08199 126.45698 91.091995 126.36698C 91.09599 126.32298 91.09599 126.28098 91.101 126.23198C 91.101 126.14398 91.091995 126.057976 91.082 125.96798C 91.077 125.92898 91.072 125.88698 91.062004 125.84998C 91.041 125.75498 91.004005 125.664986 90.962006 125.57498C 90.94401 125.54698 90.936005 125.51698 90.922005 125.49398C 90.86101 125.389984 90.77901 125.29398 90.68101 125.20398C 90.55201 125.09098 90.39101 124.98598 90.18301 124.904976C 88.672005 124.29797 84.38801 122.94498 81.171005 116.961975C 80.705 116.115974 81.146 115.39597 81.45901 115.142975C 81.77301 114.892975 82.893005 114.17898 83.42901 113.84798C 83.97101 113.515976 84.70501 113.55398 85.47001 114.08198C 86.20501 114.60798 87.80201 115.77098 89.08301 115.657974C 90.27301 115.54198 90.392006 115.05398 90.60401 114.74497C 91.44301 113.52097 93.71601 109.074974 99.67301 109.002975C 102.13101 108.97098 104.433014 109.197975 105.25701 109.14697C 106.072014 109.09397 108.97901 108.83197 110.69101 107.66697C 112.37701 106.50797 113.09601 107.34197 112.12201 108.60997C 111.97701 108.79997 111.84601 108.96697 111.72301 109.13397C 111.67501 109.19397 111.63801 109.24697 111.59401 109.30297C 111.462006 109.47897 111.34801 109.64597 111.24801 109.80597C 110.87701 110.43397 110.83101 110.97797 111.52301 111.72397C 112.61001 112.87997 112.89301 113.08697 113.24601 113.35997C 113.40301 113.48497 113.59101 113.55897 113.81001 113.56397C 113.90001 113.56397 114.000015 113.544975 114.10001 113.517975C 114.14201 113.503975 114.183014 113.503975 114.23202 113.48598C 114.38202 113.418976 114.541016 113.32798 114.71602 113.17998C 115.33702 112.630974 115.75402 112.30398 116.29602 111.60398C 116.69902 111.08698 117.04002 111.60798 116.94002 112.416985C 116.861015 113.04698 117.14402 117.09099 112.737015 122.06299C 112.59302 122.22999 112.25802 122.50599 111.84101 122.859985C 111.74101 122.94099 111.64701 123.02199 111.53801 123.11699C 111.48401 123.16299 111.42901 123.21699 111.37501 123.26299C 111.23701 123.382996 111.100006 123.510994 110.95801 123.64299C 110.84501 123.74699 110.73001 123.87199 110.615005 123.98599C 110.49701 124.10399 110.383 124.21299 110.26401 124.33999C 110.19201 124.41699 110.12001 124.50699 110.046005 124.59299C 109.898 124.75999 109.747 124.928986 109.59901 125.11399C 109.55301 125.176994 109.50901 125.24099 109.467 125.29999C 109.3 125.51799 109.138 125.73799 108.992004 125.96899C 108.80501 126.26799 108.631004 126.580986 108.479004 126.90699C 107.253006 129.523 107.412 130.38599 107.27901 131.34C 107.159004 132.285 106.42501 132.661 105.59901 133.043C 105.101006 133.272 103.781006 134.035 102.31801 135.142L102.31801 135.142L102.32601 135.135C 101.88801 135.46399 101.44201 135.83 101.000015 136.208C 100.915016 136.28499 100.833015 136.35599 100.75401 136.433C 100.31201 136.822 99.876015 137.235 99.473015 137.665C 99.20602 137.946 98.931015 138.193 98.655014 138.416C 98.56001 138.49 98.472015 138.548 98.37801 138.615C 98.18401 138.75601 97.98302 138.888 97.78501 139.00401C 97.681015 139.06502 97.56901 139.12201 97.46601 139.169C 97.266014 139.26901 97.06701 139.35 96.862015 139.421C 96.75401 139.45801 96.64902 139.503 96.541016 139.53C 96.487015 139.544 96.43702 139.567 96.388016 139.583C 96.26102 139.611 96.13302 139.61499 96.00601 139.63399C 95.848015 139.66199 95.69101 139.69199 95.530014 139.70099C 95.35401 139.70999 95.17401 139.70099 94.99301 139.69199C 94.83801 139.67499 94.68001 139.67499 94.529015 139.65698C 94.34302 139.62898 94.15901 139.57098 93.97701 139.51999C 93.82301 139.48 93.669014 139.44798 93.51202 139.39299C 93.33801 139.32599 93.166016 139.23 92.99101 139.14499C 92.82401 139.064 92.66401 138.999 92.502014 138.89899C 92.487015 138.887 92.47002 138.88298 92.45602 138.874C 92.16202 138.68799 91.862015 138.471 91.56202 138.22499C 90.78902 137.56 89.94202 136.786 89.10402 135.94199C 89.082016 135.91699 89.06002 135.89398 89.03802 135.87498C 89.015015 135.85199 88.99202 135.82399 88.971016 135.79799C 88.540016 135.36198 88.10902 134.89699 87.69002 134.41199C 87.654 134.367 86.676 133.19 86.259 132.611M139.225 225.523C 138.95401 226.931 137.80501 231.676 133.587 241.441C 133.302 242.099 133.02501 242.734 132.755 243.347C 132.69 243.491 132.623 243.628 132.56 243.773C 132.456 244.008 132.347 244.246 132.244 244.467C 132.23401 244.486 132.229 244.504 132.22101 244.523C 132.06801 244.86299 131.91301 245.181 131.755 245.498C 131.755 245.498 131.746 245.507 131.746 245.518C 131.726 245.55501 131.704 245.59601 131.679 245.63701C 131.623 245.748 131.565 245.856 131.51 245.96101C 131.43399 246.10202 131.362 246.25302 131.28099 246.389C 131.28099 246.40302 131.27599 246.408 131.27199 246.41501C 131.25299 246.44301 131.23499 246.47101 131.21599 246.50801C 131.14398 246.63301 131.04 246.81502 131.03499 246.82301C 131.025 246.84201 131.012 246.85901 131.00198 246.87901C 131.00198 246.87901 131.00198 246.87901 131.00198 246.889C 130.94798 246.96701 130.90099 247.046 130.85399 247.12001C 130.83998 247.14601 130.827 247.17601 130.81198 247.19801C 130.80298 247.20801 130.79597 247.22002 130.78198 247.23401C 130.71799 247.34001 130.64998 247.43901 130.58398 247.54901C 130.56898 247.56401 130.55598 247.576 130.54698 247.59102C 130.47098 247.70201 130.39398 247.81001 130.31898 247.91502C 130.31499 247.91502 130.30298 247.93503 130.28998 247.94202C 130.22598 248.03102 130.15698 248.11902 130.09097 248.20201C 130.07097 248.22202 130.05898 248.23901 130.04497 248.24901C 129.96896 248.35101 129.88797 248.43102 129.81697 248.51901C 129.80597 248.51901 129.79597 248.53302 129.78796 248.54501C 129.74596 248.58702 129.69696 248.62901 129.65497 248.67502L129.65497 248.67502L129.65097 248.67502C 129.62897 248.70302 129.60197 248.72601 129.57397 248.74902C 129.55997 248.76303 129.53798 248.77602 129.52298 248.79602C 129.44199 248.86902 129.36497 248.94102 129.28398 248.99503C 129.27498 249.00403 129.26997 249.00903 129.25699 249.01503C 129.18498 249.07503 129.109 249.12402 129.03299 249.17104C 129.012 249.18504 128.995 249.19803 128.97499 249.20804C 128.96098 249.21704 128.94699 249.22205 128.93799 249.22804C 128.92198 249.24205 128.90799 249.25005 128.89398 249.25005C 128.83798 249.28705 128.77998 249.31905 128.72198 249.35304C 128.72198 249.35304 128.71298 249.35304 128.70299 249.35704C 128.62898 249.39804 128.54799 249.42604 128.46199 249.45505C 128.44199 249.46504 128.422 249.47505 128.39899 249.48204C 128.30899 249.50903 128.22299 249.53404 128.12799 249.55605C 127.25199 249.74504 126.31499 249.88005 125.76699 249.97404C 125.68599 249.98204 125.12499 250.07605 125.07899 250.09305C 124.84999 250.12605 124.60299 250.16306 124.33799 250.20905C 124.33799 250.20905 124.33799 250.20905 124.33799 250.20404C 118.00699 251.27003 100.78599 254.23505 92.79799 255.84904C 87.49899 256.90704 88.01999 254.23805 86.68999 249.42105C 86.13099 247.39606 84.16299 229.48006 85.18599 218.23505C 85.52899 214.50105 85.69299 213.40704 86.36299 212.99504C 87.03199 212.58205 88.05699 211.91504 88.36499 211.82704C 88.66499 211.74805 89.57799 211.50703 90.00399 212.27605C 90.42099 213.03604 98.15499 228.72705 103.20999 234.41005C 107.69499 239.47505 110.84799 243.14905 114.62899 245.61604C 114.87899 245.78305 115.09399 245.88605 115.288994 245.95004C 115.30799 245.95905 115.33099 245.97104 115.353 245.97704C 115.44299 246.00403 115.523994 246.01804 115.601 246.02803C 115.676994 246.03802 115.747 246.03304 115.813995 246.02803C 115.83399 246.02403 115.851 246.02403 115.870995 246.01804C 115.995995 245.99104 116.09599 245.93004 116.172 245.85204C 116.181 245.84204 116.190994 245.82904 116.204994 245.81503C 116.27599 245.72704 116.327995 245.61603 116.354 245.49603C 116.35899 245.47704 116.35899 245.45403 116.35899 245.43404C 116.46299 244.85004 116.18499 243.96504 115.63 243.36403C 114.796 242.46503 111.340996 238.91003 106.78999 232.43604C 100.90299 224.08003 96.913994 211.74803 95.840996 207.79803C 95.13899 205.21204 94.744995 201.13403 94.81 197.88004C 94.806 197.88004 94.800995 197.88004 94.800995 197.88004C 94.80599 197.73604 94.81 197.61104 94.81799 197.47304C 94.82199 197.37004 94.826996 197.27003 94.83299 197.16203C 94.841995 196.94304 94.85199 196.72603 94.86399 196.51703C 94.88699 196.21002 94.90999 195.91302 94.94599 195.63603C 94.96099 195.51503 94.97799 195.40804 94.99199 195.29204C 95.02199 195.09904 95.05099 194.91203 95.07899 194.74004C 95.097984 194.63704 95.11799 194.54103 95.14199 194.44803C 95.19299 194.19803 95.25099 193.96703 95.32299 193.76602C 96.23899 191.14902 97.00399 191.43002 97.81399 192.30702C 98.625984 193.19202 105.93399 199.82402 117.98299 205.22302C 120.541985 206.36803 122.067986 206.89502 122.416985 207.27202C 122.761986 207.63702 123.31299 208.41202 122.21799 208.67001C 121.13599 208.92601 117.92199 209.04001 114.556984 210.37001C 114.361984 210.449 114.181984 210.52802 114.01698 210.60101C 112.83998 211.12901 112.28799 211.65901 112.03799 212.22801C 111.98898 212.33801 111.95199 212.45601 111.92499 212.572C 111.903984 212.65001 111.88499 212.74301 111.875984 212.82701C 111.860985 212.95601 111.85599 213.08601 111.860985 213.21602C 111.860985 213.30103 111.85599 213.38902 111.86498 213.47702C 111.874985 213.64302 111.89298 213.81102 111.91098 213.98701C 111.95098 214.28401 111.99198 214.59001 112.02198 214.92601C 112.19998 216.75201 112.51598 218.05501 112.74798 220.49701C 112.974976 222.94801 112.83398 225.16301 114.02898 226.197C 115.21998 227.21701 116.84598 227.82301 121.18898 226.98001C 125.30898 226.17702 126.68098 225.826 127.16898 225.81201C 127.64798 225.79701 128.80498 225.60301 128.09798 226.95201C 128.03098 227.08202 127.94298 227.23901 127.838974 227.43001C 126.88898 229.121 124.587975 232.932 123.80397 235.47101C 122.93497 238.27 122.75897 239.044 122.68297 239.522C 122.61297 240.003 122.94497 240.93001 123.799965 239.893C 124.65296 238.854 126.341965 234.985 130.58496 230.059C 131.15396 229.401 131.67596 228.822 132.16595 228.28801C 132.16995 228.28801 132.17496 228.27802 132.18495 228.268C 132.56895 227.856 132.92595 227.481 133.26695 227.13701C 133.36195 227.039 133.45195 226.951 133.54295 226.865C 133.83295 226.58301 134.10396 226.323 134.35695 226.07701C 134.42395 226.02 134.49695 225.95201 134.55595 225.895C 135.18895 225.322 135.73296 224.88 136.20795 224.53401C 136.25595 224.50702 136.29794 224.477 136.34195 224.44601C 136.52495 224.31102 136.70595 224.19002 136.87296 224.08902C 136.91896 224.06203 136.96796 224.02902 137.01396 223.99602C 137.18097 223.89302 137.33896 223.80801 137.48495 223.72702C 137.50795 223.70702 137.54396 223.69002 137.56996 223.67603C 137.58997 223.67003 137.60297 223.65602 137.61597 223.64903C 137.78796 223.57004 137.93097 223.48604 138.07697 223.42003C 139.262 222.836 139.584 223.646 139.225 225.523M146.249 247.083C 145.569 247.23999 142.63199 247.68599 142.178 247.693C 141.73099 247.704 141.351 247.286 141.541 246.965C 141.73 246.65 143.752 244.019 144.863 239.439C 145.05 238.693 145.51701 238.174 145.82 239.246C 146.054 240.029 146.96101 243.922 147.17001 245.38701C 147.201 245.643 147.358 246.823 146.249 247.083M147.481 209.738C 145.55101 210.462 143.405 208.293 141.668 207.134C 137.76399 204.465 134.172 201.893 131.225 198.292C 126.711006 192.781 127.133 188.93901 128.444 181.82C 129.355 176.763 127.703 172.00801 127.343 171.33801C 126.986 170.66602 127.389 169.98401 128.457 170.48401C 129.524 170.98601 130.545 172.54301 131.641 173.878C 132.72801 175.21301 132.96901 174.264 133.059 173.35701C 133.267 171.26302 132.795 169.58601 132.53401 168.613L132.53401 168.613L132.52802 168.613C 132.514 168.56601 132.50201 168.507 132.49202 168.45601C 132.33902 167.876 131.79903 166.58301 130.66302 166.348C 129.14102 166.028 127.64503 165.893 126.83302 165.309C 126.455025 165.037 126.025024 164.481 126.45102 164.07301C 127.22602 163.322 128.35202 162.32602 129.42201 161.96C 130.87701 161.46 132.27602 160.699 134.11902 160.709C 146.55702 160.788 149.91101 157.91 154.66602 155.937C 155.59802 155.54599 156.15701 155.372 156.95502 155.622C 157.75702 155.86299 159.93102 156.68 160.48001 157.646C 161.03201 158.616 161.12901 162.657 162.19101 165.57199C 163.238 168.49599 165.022 165.46599 165.41301 164.215C 165.78801 162.958 165.93501 159.97 165.95502 159.21399C 165.97401 158.458 166.19502 155.26999 167.19601 154.19499C 169.18402 152.07199 169.65201 149.56 169.89302 148.57799C 170.10602 147.69699 170.27303 145.234 169.83702 141.73499C 169.79002 141.30399 169.72603 140.85199 169.65002 140.38899C 168.97803 136.16899 168.12903 135.812 166.98503 135.045C 165.83704 134.28 164.63503 134.612 161.71303 132.61C 159.09903 130.812 156.72603 127.67 154.74702 125.753C 152.77603 123.839 149.65903 121.914 146.37102 121.575C 146.16302 121.556 145.98102 121.551994 145.81401 121.551994C 145.8 121.551994 145.792 121.551994 145.77701 121.551994C 145.63101 121.561 145.49301 121.57099 145.37502 121.59599C 145.35202 121.59999 145.33801 121.60999 145.31201 121.61499C 145.20801 121.63399 145.113 121.66099 145.03201 121.69399C 145.01001 121.70999 144.99 121.72399 144.96301 121.73399C 144.90001 121.770996 144.83801 121.80599 144.78702 121.84699C 144.76402 121.869995 144.74501 121.89299 144.72002 121.91899C 144.68301 121.95599 144.64601 121.995995 144.62001 122.04199C 144.59702 122.07399 144.58301 122.11399 144.563 122.15099C 144.549 122.190994 144.528 122.22299 144.519 122.259995C 144.5 122.31799 144.491 122.37399 144.482 122.436C 144.482 122.459 144.478 122.478 144.478 122.503C 144.47299 122.584 144.47299 122.668 144.482 122.753L144.482 122.753L144.478 122.753C 144.545 123.566 145.131 124.558 145.28 124.965996C 145.48799 125.52 146.01399 127.214 145.081 128.20099C 144.14099 129.18799 138.64499 134.105 133.49799 133.982C 131.17198 133.929 129.23099 133.45099 127.60199 132.756C 127.61099 132.765 127.61699 132.772 127.62199 132.78099C 127.552986 132.75099 127.49499 132.71399 127.42299 132.68098C 127.03399 132.50998 126.664986 132.32399 126.31299 132.12898C 126.25699 132.09698 126.18999 132.06898 126.12699 132.03398C 125.731995 131.80698 125.36999 131.56798 125.024994 131.32298C 124.921 131.24599 124.82099 131.16998 124.72099 131.09598C 124.45899 130.89697 124.20899 130.69298 123.97499 130.48398C 123.90599 130.42097 123.82599 130.35898 123.75699 130.29797C 123.47699 130.03098 123.21699 129.76997 122.97399 129.50998C 122.913994 129.43797 122.86099 129.37097 122.79999 129.30598C 122.61399 129.09099 122.443985 128.87698 122.27999 128.66899C 122.22899 128.60199 122.17999 128.54199 122.13399 128.47398C 121.94899 128.21199 121.777985 127.96198 121.63199 127.720985C 121.61199 127.69099 121.60199 127.667984 121.582985 127.639984C 121.455986 127.41998 121.346985 127.21098 121.250984 127.02098C 121.22798 126.96998 121.20299 126.92398 121.178986 126.86998C 121.083984 126.66598 121.00298 126.46698 120.94798 126.29998C 120.19698 124.04098 122.06198 118.70198 121.99598 114.87898C 121.97298 113.20398 121.626976 109.98998 121.36998 107.75998C 121.11398 105.52898 122.28998 102.52598 122.83698 101.79798C 122.959984 101.63798 123.14498 101.48498 123.35799 101.334984C 123.41199 101.29498 123.471985 101.262985 123.528984 101.22598C 123.72798 101.095985 123.955986 100.972984 124.21398 100.859985C 124.250984 100.84099 124.28598 100.82298 124.32798 100.80199C 124.57998 100.69799 124.84898 100.58899 125.14198 100.49399L125.14198 100.49399L125.14198 100.50799C 125.62199 100.34299 126.138985 100.18999 126.70499 100.06299C 128.53798 99.65499 130.68098 100.56199 131.23198 102.07499C 133.14798 107.35299 135.27098 108.46799 135.98198 108.81299C 136.70398 109.164986 137.83798 108.11999 138.28297 107.734985C 138.72998 107.361984 139.80698 105.945984 139.32898 105.32498C 138.59198 104.38198 138.18797 103.80298 137.97498 103.21398C 137.61398 102.21798 138.91597 102.19698 139.22397 102.33598C 143.14697 103.997986 145.02597 104.346985 148.82397 104.219986C 152.61497 104.10199 158.51198 101.60399 159.24197 101.58999C 159.83698 101.57599 161.01297 101.941986 161.45398 102.553986C 161.52698 102.65798 161.62598 102.805984 161.71898 102.95199C 162.09898 103.51699 162.60898 104.27499 163.06297 104.43299C 163.08298 104.43699 163.09497 104.44699 163.11397 104.45199C 163.67596 104.59099 165.01396 104.48899 165.72296 104.51899C 166.68196 104.55199 168.34596 104.219986 168.29897 105.98099C 168.19296 110.68299 164.47597 113.61599 164.13797 113.900986C 164.00797 114.01898 163.93398 114.16998 163.86697 114.32298C 163.84798 114.36498 163.81198 114.40898 163.80397 114.45499C 163.78397 114.540985 163.76697 114.62698 163.76697 114.707985C 163.76697 114.792984 163.77696 114.86999 163.79497 114.93498C 163.88297 115.21498 164.28497 116.22998 164.45697 116.50598C 164.51797 116.60598 164.59196 116.70098 164.68697 116.790985C 164.70996 116.81399 164.74896 116.832985 164.77597 116.85799C 164.84998 116.91399 164.92297 116.96699 165.00697 117.00399C 165.04898 117.02699 165.10498 117.03199 165.15398 117.04799C 165.23198 117.066986 165.32098 117.08499 165.40997 117.07999C 165.46597 117.07999 165.53497 117.06099 165.59097 117.04799C 165.72998 117.01799 165.85997 116.98999 166.00798 116.89999C 169.15797 115.01598 170.43898 112.78899 171.80998 109.98999C 173.17699 107.20399 173.89598 98.00299 173.97498 96.49399C 174.05298 94.97399 174.53098 94.039986 175.27698 93.428986C 176.01797 92.81499 179.69798 90.457985 180.21698 90.33798C 180.74498 90.21498 181.34798 90.16398 181.94098 91.53598C 182.54498 92.91698 183.85999 101.39998 184.10999 102.70398C 184.39299 104.08998 185.111 103.92498 185.47299 103.65898C 186.26 103.083984 186.82999 102.37698 187.53099 101.17298C 188.25499 99.96798 187.72499 98.305984 187.021 97.53198C 186.327 96.75398 185.22699 95.51099 185.69499 94.276985C 186.76099 91.472984 189.00099 91.61398 189.60199 91.71398C 190.191 91.81398 192.46098 92.83598 192.87099 98.945984C 193.46399 107.99699 189.77298 117.35599 188.89299 119.72899C 186.94699 125.00499 186.53899 128.59698 186.23799 130.30699C 185.94598 132.01 184.65298 131.702 184.342 131.426C 184.027 131.151 183.623 129.832 183.424 129.637C 183.22 129.44199 182.70999 129.54199 182.37599 130.995C 182.043 132.44499 180.93098 134.459 180.28 135.555C 179.844 136.26599 179.925 137.286 180.03 138.07799C 180.225 139.61699 181.026 145.50499 180.781 152.19899C 180.337 164.109 176.35501 171.611 173.38501 175.538C 166.397 184.77899 159.84302 188.64099 159.05602 189.189C 158.04501 189.894 156.35402 189.784 155.78801 189.597C 155.21301 189.435 154.70801 188.841 153.63301 188.074C 153.54501 188.005 153.45702 187.968 153.38301 187.929C 152.529 187.534 152.40102 188.73601 152.40901 189.05C 152.419 189.384 152.936 190.621 153.22801 191.821C 153.78601 194.083 152.529 196.817 151.23601 198.975C 149.391 202.026 147.332 205.38 147.76201 209.065C 147.757 209.393 147.757 209.632 147.481 209.738M206.699 213.261C 207.752 219.315 208.93701 226.692 210.276 235.735C 210.345 236.212 210.396 236.62 210.433 237C 210.443 237.047 210.453 237.099 210.453 237.144C 210.49 237.50099 210.509 237.827 210.509 238.094C 210.509 238.122 210.505 238.146 210.505 238.168C 210.505 238.288 210.505 238.418 210.49501 238.521C 210.48001 238.624 210.46301 238.70999 210.44301 238.799C 210.44301 238.83499 210.43301 238.872 210.43301 238.905C 210.38701 239.09 210.32402 239.248 210.24002 239.382C 210.23003 239.40201 210.21303 239.419 210.19302 239.446C 210.12003 239.549 210.02602 239.641 209.92802 239.716C 209.89603 239.739 209.86702 239.763 209.83002 239.79001C 209.70502 239.869 209.56502 239.938 209.39302 239.994C 209.35202 240.013 209.29102 240.02 209.23602 240.04001C 209.10602 240.08202 208.96402 240.119 208.80902 240.16101C 208.71202 240.18102 208.61603 240.19801 208.51701 240.225C 208.31401 240.266 208.09601 240.309 207.86502 240.354C 207.43802 240.442 206.81203 240.531 206.37802 240.567C 205.62701 240.641 204.75102 240.715 203.79703 240.799C 194.57404 241.64299 176.52403 243.47299 162.06403 245.29399C 161.79202 245.31999 161.51303 245.34999 161.21602 245.39699C 160.09001 245.555 159.43701 245.37498 159.34802 244.26999C 159.27902 243.25499 157.58702 233.217 152.47603 224.66599C 152.00703 223.87799 151.51202 223.09999 150.98802 222.34598C 150.40503 221.50598 151.27103 220.86697 152.09602 221.15797C 154.41202 221.97197 160.82602 224.90697 169.97502 231.45497C 172.31102 233.12398 172.91801 233.64297 173.44202 234.08797C 173.51102 234.14897 173.61902 234.20796 173.71501 234.25497C 173.75201 234.27397 173.794 234.28197 173.84001 234.30098C 173.90302 234.32397 173.98401 234.34798 174.06302 234.36598C 174.10503 234.37498 174.14601 234.38498 174.18802 234.38799C 174.27602 234.39798 174.36401 234.402 174.44302 234.39798C 174.48003 234.39798 174.51202 234.39798 174.54202 234.39798C 174.64702 234.38298 174.75002 234.35098 174.83403 234.29898C 175.04703 234.16498 175.14503 233.90498 174.97803 233.45598C 174.40903 231.85197 171.34903 228.70097 163.52203 221.43797C 162.40503 220.40497 162.38603 219.96898 163.54404 219.84798C 164.69804 219.73798 167.83603 219.87997 169.50404 219.81097C 171.17705 219.73798 174.91205 219.63397 174.18004 214.74597C 173.61903 210.95998 173.17903 207.04398 173.11003 205.87198C 173.04703 204.70398 172.84103 202.51997 170.10703 202.21098C 167.39102 201.89899 162.83603 202.52998 158.75003 203.96199C 157.62303 204.353 157.22504 203.833 158.05904 203.07199C 158.88904 202.31699 166.06303 197.64899 172.17604 190.629C 178.89604 182.9 181.85204 177.213 183.53004 172.041C 183.83304 171.123 184.22005 171.435 184.59604 171.645C 184.96704 171.864 187.48804 173.903 188.38203 178.916C 189.25804 183.939 190.99603 190.91 187.93303 209.216C 186.25003 219.244 184.19302 225.167 183.71503 226.58101C 183.23402 227.98001 184.05803 228.76901 184.98503 227.514C 187.14503 224.565 190.00104 216.391 192.41103 206.99301C 194.78403 197.72002 195.64403 189.77002 196.00803 184.67401L196.00803 184.67401L196.00803 184.669C 196.04503 184.201 196.07703 183.761 196.10002 183.339L196.10002 183.339L196.11502 183.168C 196.13503 182.756 196.15602 182.36 196.18402 182.005C 196.18402 181.787 196.21101 181.615 196.24802 181.45801C 196.25801 181.41101 196.27501 181.37401 196.29002 181.33301C 196.31203 181.263 196.33203 181.18501 196.35802 181.12901C 196.35802 181.11902 196.36902 181.11902 196.36902 181.11002C 196.41502 181.02202 196.47102 180.94801 196.52002 180.89102C 196.53603 180.87202 196.54802 180.85402 196.56203 180.84402C 196.60803 180.80302 196.65002 180.78403 196.69203 180.76202C 196.72403 180.74702 196.75603 180.72502 196.78603 180.71402C 196.81203 180.71002 196.83203 180.71002 196.85902 180.70502C 196.91103 180.69502 196.96202 180.68501 197.00702 180.68501C 197.02602 180.68501 197.04402 180.68501 197.06702 180.695C 197.09001 180.695 197.12001 180.695 197.13702 180.695C 197.15404 180.695 197.16402 180.71 197.17302 180.71C 197.35902 180.742 197.52902 180.81601 197.66002 180.87201C 198.13802 181.059 200.25102 181.669 201.35202 186.73901C 201.39803 186.94301 201.44502 187.16501 201.50002 187.38602C 201.50902 187.46002 201.52602 187.54301 201.54602 187.61702C 201.59802 187.82101 201.64403 188.02502 201.69302 188.24802L201.69302 188.24802L201.70403 188.28502C 202.617 192.271 204.271 199.168 206.699 213.261" stroke="none" fill="#000000" fill-rule="nonzero" />
            <path d="M167.706 221.898L168.734 221.898L168.734 224.521L169.355 224.521L169.355 221.898L170.38 221.898L170.38 221.371L167.706 221.371L167.706 221.898" stroke="none" fill="#000000" fill-rule="nonzero" />
            <path d="M172.609 223.623L171.816 221.371L170.922 221.371L170.922 224.521L171.497 224.521L171.497 221.986L172.373 224.521L172.878 224.521L173.74 221.986L173.74 224.521L174.314 224.521L174.314 221.371L173.42 221.371L172.609 223.623" stroke="none" fill="#000000" fill-rule="nonzero" />
		</g>
	</g>
</g>
</svg>