<?xml version="1.0" encoding="utf-8"?>
<!-- Generator: Adobe Illustrator 14.0.0, SVG Export Plug-In . SVG Version: 6.00 Build 43363)  -->
<!DOCTYPE svg PUBLIC "-//W3C//DTD SVG 1.1//EN" "http://www.w3.org/Graphics/SVG/1.1/DTD/svg11.dtd">
<svg version="1.1" id="Layer_1" xmlns="http://www.w3.org/2000/svg" xmlns:xlink="http://www.w3.org/1999/xlink" x="0px" y="0px"
	 width="300px" height="300px" viewBox="0 0 300 300" enable-background="new 0 0 300 300" xml:space="preserve">
<g id="Layer_2">
	<g>
		<g>
			<g>
				<path fill="#A3080C" d="M151.147,4.931c-3.52,0-10.388,0.368-10.668,0.385c1.331,0.355-102.726,53.74-102.726,53.18
					c-0.032,0.181-0.081,0.331-0.176,0.449c-20.628,25.234-32.872,57.29-32.872,92.426c0,28.958,8.437,55.93,22.944,78.656
					c0.098-0.053,36.938,35.63,36.487,39.123c24.333,18,54.419,28.654,87.006,28.654c11.382,0,22.439-1.344,33.08-3.795
					c-0.194-1.154-0.37-2.309-0.528-3.447l-1.923-13.5c-0.579-3.693-3.604-28.793-3.604-28.793l-0.01-0.074l3.219-1.236
					c0,0,4.232,0.175,4.127,0.188c0,0,4.291,25.244,5.037,29.623l0.807,4.635c0.312,1.867,0.575,3.718,0.96,5.636
					c0.27,1.595,0.51,3.124,0.746,4.647c3.471-1.043,6.891-2.201,10.246-3.483c-0.51-2.869-1.065-5.826-1.112-6.263l-1.729-10.27
					c-2.284-10.595-3.74-18.454-4.807-23.682c-0.152-0.751-0.436-2.086-0.436-2.086l3.305-1.322l4.36,0.34
					c0,0,5.562,24.34,6.951,31.699l1.586,8.193c2.983-1.349,5.937-2.775,8.805-4.318l-0.917-4.204
					c-0.098-0.407-0.204-0.896-0.329-1.44c-1.868-8.222-6.827-31.125-6.827-31.125l3.977-1.562l3.885,0.547h0.019
					c0,0,4.991,21.114,8.23,33.131c5.562-3.452,10.891-7.243,15.915-11.387c0,0,46.373-69.416,46.705-69.187
					c4.347-13.857,6.701-28.604,6.701-43.899C297.58,70.496,232.018,4.931,151.147,4.931z"/>
			</g>
		</g>
	</g>
</g>
<g id="Layer_6">
	<path fill="#FFF1E2" d="M187.834,77.833c0,0-18.29-34.49-25.751-39.667c-7.452-5.177-19.735-8.409-28.25-7.333
		c-10.781,1.361-35.439,14.41-37.078,14.841c0.012,0.126-9.187,11.473-11.589,23.159c-0.534,2.597-10,44-10,44l18,52l64.146,30.604
		l23.521-25.604c0,0,3.001-25.333,9.334-44.333s4.333-29.333,4.333-29.333L187.834,77.833z"/>
</g>
<g id="Layer_4">
	<path fill="#FFFFFF" d="M114.552,210.378c-0.195,0.074-0.373,0.153-0.54,0.228C114.179,210.531,114.357,210.452,114.552,210.378"/>
	<path fill="#FFFFFF" d="M114.01,210.609L114.01,210.609z"/>
	<path fill="#FFFFFF" d="M109.271,111.341c-1.018,0.58-1.771,0.716-2.241,0.966c-0.471,0.257-1.214,0.809-1.03,1.796
		c0.194,0.992,0.466,1.314,0.561,2.079c0.09,0.757-0.274,2.129-1.154,3.687c-0.866,1.562-2.252,2.69-3.039,3.147
		c-0.774,0.463-1.249,0.588-1.689,0.82c-0.1,0.046-0.19,0.285-0.28,0.765c-0.004,0.004-0.004,0.004-0.009,0.009
		c0.056-0.044,0.118-0.085,0.204-0.118c0.169-0.072,0.517-0.081,0.83-0.139c0.303-0.056,0.526-0.127,0.637-0.142
		c0.118-0.014,0.82-0.113,0.938-0.139c0.118-0.023,2.245-0.468,3.563-1.075c1.311-0.61,3.613-1.72,4.932-3.314
		c0.969-1.167,2.136-3.292,2.25-5.401c0.027-0.436,0.022-0.707,0.022-0.707s0.005,0,0.005-0.005c0.015,0,0.028-0.004,0.042-0.004
		c-0.218-0.009-0.408-0.081-0.563-0.208c-0.353-0.276-0.638-0.48-1.72-1.636c-0.696-0.746-0.648-1.293-0.272-1.918
		c-0.009,0.014-0.025,0.028-0.035,0.042C110.902,110.146,110.276,110.762,109.271,111.341"/>
	<path fill="#FFFFFF" d="M163.049,104.448c0,0-0.594,0.051-0.798,0.141c-0.162,0.067-0.468,0.181-0.677,0.461
		c-0.208,0.285-0.256,0.783,0.181,1.318c0.445,0.533,1.057,1.529,1.006,2.382c-0.032,0.375,0.023,1.601-0.375,2.484
		c-0.445,1.001-0.959,1.988-1.312,2.433c-0.204,0.262-1.146,1.304-1.284,2.042c-0.037,0.155,0,0.327,0.073,0.489
		c0,0,0.011-0.009,0.011,0.004c-0.005,0.005,0,0.014-0.005,0.023c0.019-0.058,0.042-0.114,0.088-0.167
		c0.235-0.264,0.714-0.531,1.548-0.788c1.106-0.35,1.891-0.767,2.503-1.233c-0.074,0.086-0.093,0.186-0.14,0.285
		c0.064-0.153,0.135-0.304,0.272-0.424c0.329-0.283,4.669-3.196,4.78-7.899c0.042-1.766-2.249-1.999-3.203-2.031
		c-0.709-0.03-2.045,0.62-2.61,0.483c-0.009-0.004-0.026-0.019-0.046-0.023c0.009,0,0.009,0.004,0.009,0.004
		C163.071,104.443,163.053,104.443,163.049,104.448"/>
	<path fill="#FFFFFF" d="M116.833,136.916c0,0,17.25,5.334,25.5-4.25c8.25-9.583,22.5,5.084,23.416,9.417
		c0.918,4.333-21.416,16.333-28.166,16.583s-33.5-3.333-33.5-6.083S116.833,136.916,116.833,136.916z"/>
	<path fill="#FFFFFF" d="M187.625,68.375c-2.743-29.092-16.129-43.673-25.75-50.75c-10.111-6.662-34.164-12.53-45.5-12
		C103,6.25,72.112,20.839,70.917,21.917c-1.139,1.039-21.854,35.677-19.292,41.865c2.562,6.188,6.192,35.413,7.375,37.76
		c0.36,0.703,6.269,19.743,10.167,19.042c3.929-0.707,7.592-18.072,7.417-19.417c-0.5-3.833-7.457-21.106-6.917-23.542
		c0.547-2.429,19.128-31.52,20.458-32.542c0.938-0.714,32.811-4.678,32.996-4.37c-0.004-0.009-0.004-0.019-0.017-0.028l-0.004-0.005
		c2.228-1.942,7.395-7.061,12.012-6.877c4.613,0.19,17.802,1.838,25.254,7.021c7.461,5.177,9.765,10.245,10.398,11.663
		c-0.005,0-0.014,0.007-0.019,0.007c0.25,0.037,10.629,23.631,13.671,23.715C186.445,76.264,187.959,71.872,187.625,68.375z"/>
	<path fill="#FFFFFF" d="M174.713,87.718c-1.107,0.129-4.134,0.405-4.468,0.447c-0.594,0.077-0.579,0.413-0.542,0.665
		c0.031,0.26,0.125,1.256,0.161,1.685c0.037,0.426,0.482,0.676,0.938,0.639c0.459-0.032,3.354-0.294,3.786-0.361
		c0.422-0.069,0.839-0.426,0.834-0.767c-0.009-0.343-0.004-1.249-0.009-1.615C175.403,88.042,175.13,87.671,174.713,87.718"/>
	<path fill="#FFFFFF" d="M54.274,226.835c0.575,0.125,1.188,0.265,1.78,0.403c-1.323-0.307-2.762-0.621-3.587-0.825
		c-0.408-0.103-1.05-0.162-1.793-0.147c-1.24,0.027-2.771,0.27-4.007,0.891c-1.563,0.777-11.493,5.812-15.655,7.914
		c4.764,6.826,10.08,13.228,15.908,19.141c0.364-1.501,6.873-8.331,7.789-12.334C55.963,236.393,52.842,229.152,54.274,226.835"/>
	<path fill="#FFFFFF" d="M220.015,242.717l-7.847,1.012c0,0,5.645,26.063,7.156,32.564l0.911,4.204
		c2.73-1.47,5.399-3.022,8.022-4.653c-3.244-12.017-8.235-33.127-8.235-33.127H220.015z"/>
	<g>
		<polygon fill="none" points="172.609,223.619 171.821,221.371 170.918,221.371 170.918,224.521 171.492,224.521 171.492,221.986 
			172.368,224.521 172.873,224.521 173.74,221.986 173.74,224.521 174.319,224.521 174.319,221.371 173.415,221.371 		"/>
		<polygon fill="none" points="167.706,221.898 168.734,221.898 168.734,224.521 169.355,224.521 169.355,221.898 170.385,221.898 
			170.385,221.371 167.706,221.371 		"/>
	</g>
	<path fill="#FFFFFF" d="M265.487,138.438c-3.963,2.994-6.158,7.038-6.146,11.085c0.019,5.999,4.871,11.776,16.113,11.739
		c2.79-0.019,5.251-0.301,7.488-0.681c0.653-0.106,1.293-0.224,1.9-0.349l1.307-5.584c-2.178,0.728-4.931,1.33-7.137,1.34
		c-5.987,0.019-10.001-3.531-10.01-8.186c-0.01-2.481,1.01-4.66,2.854-6.254c1.975-1.708,4.886-2.741,8.527-2.741
		c2.883,0,4.569,0.797,5.719,1.935c0.231,0.223,0.444,0.457,0.63,0.702h0.938l1.835-6.59c-1.891-0.624-4.694-1.149-7.651-1.182
		C274.969,133.58,269.375,135.5,265.487,138.438"/>
	<path fill="#FFFFFF" d="M256.111,139.354c0.808,0,1.479,0.294,1.929,0.679c0.385,0.327,0.616,0.716,0.616,1.052h0.923l1.789-7.156
		h-24.295l-0.355,1.4l-0.084,0.34c0,0,2.66,0.299,1.845,2.957l-6.065,22.034l10.315,0.02h1.809l0.459-1.892
		c0,0-2.268-0.547-1.675-2.642c0.028-0.131,0.882-3.264,1.392-5.145c0.228-0.812,0.39-1.396,0.39-1.396l5.552-0.004
		c0.908,0,1.604,0.167,2.142,0.375c1.112,0.426,1.539,1.072,1.539,1.072l1.611-6.548h-9.36l1.011-3.74l0.38-1.395L256.111,139.354z"
		/>
	<path fill="#FFFFFF" d="M226.591,156.727c-0.719-0.77-6.961-10.493-6.961-10.493l11.039-8.835l0.366-0.294
		c0.494-0.413,0.959-0.705,1.366-0.917c1.173-0.603,1.929-0.517,1.929-0.517l0.443-1.761l-14.189,0.021l-0.353,1.395l-0.084,0.345
		c0.964,0.067,2.31,0.929,1.21,1.956c-0.144,0.123-11.404,8.727-11.404,8.727l0.088-0.304l2.341-8.481
		c0.495-1.694,2.315-1.898,2.315-1.898l0.445-1.745l-13.546,0.004l-0.348,1.395l-0.089,0.345c0.648,0.167,2.498,0.526,1.857,2.957
		c-4.521,16.338-4.004,14.721-4.31,15.611c-1.012,3.873-2.53,4.406-3.443,4.505c-0.199,0.019-0.371,0.019-0.496,0.026l-0.186,0.732
		l-0.287,1.158h12.364h1.804l0.473-1.918c0,0-2.248-0.445-1.82-2.067c0.218-0.815,0.786-2.883,1.287-4.708
		c0.486-1.771,0.917-3.323,0.917-3.323c2.457,3.939,3.022,4.426,5.988,8.495c2.729,3.764,5.646,3.588,12.688,3.54
		c0.574-0.004,1.168-0.009,1.808-0.009l0.468-1.882C228.486,158.798,227.304,157.495,226.591,156.727"/>
	<path fill="#FFFFFF" d="M293.399,134.391c-0.352-0.345-0.769-0.517-1.27-0.517c-0.491,0-0.908,0.172-1.261,0.517
		c-0.344,0.345-0.52,0.769-0.52,1.263c0,0.498,0.176,0.92,0.52,1.272c0.344,0.346,0.77,0.526,1.261,0.526
		c0.501,0,0.918-0.181,1.27-0.526c0.349-0.352,0.524-0.774,0.524-1.272C293.928,135.16,293.747,134.736,293.399,134.391
		 M293.224,136.75c-0.297,0.303-0.667,0.457-1.094,0.457c-0.426,0-0.788-0.153-1.084-0.457c-0.297-0.299-0.45-0.665-0.45-1.096
		c0-0.422,0.153-0.788,0.45-1.087c0.301-0.303,0.658-0.456,1.084-0.456c0.427,0,0.788,0.153,1.094,0.456
		c0.297,0.299,0.445,0.665,0.445,1.087C293.669,136.084,293.521,136.451,293.224,136.75"/>
	<path fill="#FFFFFF" d="M292.941,135.231c0-0.246-0.106-0.412-0.302-0.498c-0.13-0.042-0.297-0.065-0.537-0.065h-0.687v1.963h0.339
		v-0.776h0.272c0.189,0,0.314,0.023,0.395,0.065c0.116,0.076,0.181,0.225,0.176,0.452v0.151l0.015,0.067c0,0.009,0,0.014,0,0.023
		c0,0,0,0.009,0.01,0.019h0.319l-0.005-0.028c-0.019-0.014-0.019-0.046-0.027-0.1v-0.142v-0.148c0-0.1-0.037-0.209-0.11-0.309
		c-0.065-0.1-0.187-0.167-0.334-0.19c0.12-0.019,0.213-0.046,0.282-0.095C292.871,135.535,292.941,135.408,292.941,135.231
		 M292.395,135.575c-0.069,0.028-0.177,0.037-0.319,0.037h-0.319v-0.707h0.292c0.194-0.004,0.338,0.023,0.426,0.072
		c0.084,0.046,0.13,0.146,0.13,0.29C292.603,135.413,292.533,135.517,292.395,135.575"/>
	<path fill="#FFFFFF" d="M273.5,189.501c-18.667-5.667-57-4.333-57-4.333l31.333,73.833c0,0,2.902-1.455,3.264-0.661
		c16.999-15.892,30.198-35.764,38.113-58.146C288.586,199.714,292.167,195.168,273.5,189.501z"/>
	<g>
		<polygon fill="none" points="174.319,221.751 174.319,221.371 174.008,221.371 		"/>
		<g>
			<polygon fill="none" points="174.319,221.751 174.319,221.371 174.008,221.371 			"/>
			<path fill="#FFFFFF" d="M209.842,276.622c-1.399-7.358-6.966-31.699-6.966-31.699s7.391-1.942,9.124-6.173
				c1.733-4.229-2.189-10.745-2.375-13.313c-0.801-7.666-3.813-39.063-8.75-45.563c-2.875-3.785-16.096-11.253-17.125-11.208
				c-4.75,0.208-14.25,20.896-22.188,22.771c-5.291,1.25-9.028-3.897-8.172-3.508c-0.015-0.011-0.033-0.02-0.042-0.029
				c0,0,0.009-0.592-0.876-3.373c-0.885-2.791-2.739-5.719-3.082-6.381c-0.333-0.664-1.339-2.109-1.374-2.275
				c-0.028-0.163-0.394-1.094-0.653-2.79c-0.493-3.272-0.267-5.464-0.248-5.663c0.01-0.2,0.101-0.793,0.128-0.913
				c0.021-0.126-0.028-0.339-0.179-0.376c-0.158-0.027-0.58-0.13-1.021,0.324c-0.92,0.928-0.962,1.104-0.979,1.261
				c-0.032,0.147,0.063,0.427,0.035,0.751c-0.1,1.029-0.28,1.816-0.741,2.567c-0.459,0.76-0.758,1.021-1.408,0.959
				c-0.661-0.06-1.211-0.584-1.291-1.941c-0.086-1.356-0.353-1.821-0.625-2.141c-0.271-0.334-0.889-0.487-1.1-0.474
				c-0.208,0-0.382,0.186-1.812,0.537c-1.418,0.361-3.672,0.482-4.004,0.496c-0.339,0.02-1.576,0.145-1.585,0.148
				c0.259,0.968-5.198-0.52-6.116,0.216c-1.875,1.5-2.751,11.24-3.667,16.291c-0.001,0.004-0.001,0.009-0.002,0.015L92,188.25
				l-10.75,25c0,0,3.25,49.5,3.25,50.25s68-14.75,68-14.75l25.655-0.555c0,0,0.006,0.019,0.011,0.068
				c0.181,1.479,3.025,25.104,3.604,28.803l1.923,13.49c0.158,1.146,0.334,2.305,0.528,3.448c2.976-0.687,5.923-1.45,8.829-2.321
				c-0.236-1.521-0.479-3.055-0.746-4.64c-0.381-1.923-0.645-3.772-0.955-5.64l-0.814-4.635c-0.742-4.375-5.042-29.613-5.042-29.613
				l4.507-2.846l5.216,1.594c0.139,0.64,0.278,1.334,0.436,2.086c1.07,5.236,2.53,13.087,4.807,23.672l1.729,10.279
				c0.047,0.436,0.604,3.393,1.117,6.266c2.743-1.053,5.445-2.188,8.11-3.393L209.842,276.622z"/>
		</g>
	</g>
</g>
<g id="Layer_5">
	<path fill="#F5D4B7" d="M158.875,89.083c-5.667,0.833-13.917,5.458-13.542,8.833c0.231,2.092,12.05,2.412,17.375,2.792
		s6.204-4.739,5.918-7.521C168.34,90.405,164.839,88.207,158.875,89.083z"/>
	<path fill="#F5D4B7" d="M197.547,179.938c-2.813-0.293-1.506,4.267-1.539,4.729v0.009c1.423,5.367,2.604,10.721,3.518,15.567
		c0.011,0.478,0.047,0.897,0.106,1.237c0.403,2.112,1.237,8.938,2.841,24.357c0.371,5.135,0.695,10.492,0.909,14.997
		c0.146-0.01,9.618,0.539,9.618,0.539s-0.375-13.25-3.313-29.875C206.749,194.874,202.344,180.438,197.547,179.938z"/>
	<path fill="#F5D4B7" d="M172.007,138.188c0.426-2.345-0.062-3.504-0.83-4.875c-0.755-1.367-2.215-2.646-4.102-3.886
		c-1.825-1.214-5.95-4.854-6.35-5.198c-0.39-0.336-2.316-2.157-2.762-2.519c-0.464-0.357-1.363-1.105-3.337-2.106
		c-4.783-2.412-8.629-0.607-8.778-0.524c-0.146,0.082-0.856,0.656-1.536,1.302c-0.67,0.635-0.167,1.863,0.09,2.311
		c0,0,25.384,18.607,25.435,19.041l0.019,0.014C169.856,141.748,171.654,140.104,172.007,138.188"/>
	<path fill="#F5D4B7" d="M161.505,115.271c-0.834,0.257-1.313,0.523-1.548,0.788c-0.046,0.053-0.064,0.111-0.083,0.167
		c-0.02,0.044-0.02,0.09-0.02,0.134c0,0.037,0,0.069,0,0.102c0.009,0.044,0.027,0.081,0.037,0.121
		c0.022,0.046,0.046,0.095,0.074,0.141c0.019,0.03,0.037,0.063,0.063,0.095c0.037,0.058,0.089,0.113,0.14,0.171
		c0.022,0.028,0.047,0.051,0.074,0.077c0.064,0.064,0.135,0.132,0.214,0.199c0.019,0.019,0.037,0.037,0.06,0.051
		c0.089,0.077,0.182,0.148,0.273,0.225c0.019,0.009,0.027,0.019,0.047,0.033c0.111,0.081,0.223,0.155,0.334,0.231
		c0.004,0.005,0.009,0.005,0.014,0.009c0.125,0.081,0.245,0.158,0.361,0.234c0.125,0.074,0.301,0.113,0.515,0.118
		c0.203,0.009,0.454-0.019,0.724-0.067c0.89-0.176,2.029-0.625,2.993-1.087c0,0.005-0.01,0-0.019,0.005
		c-0.056,0.019-1.821-2.894-1.752-2.98C163.396,114.504,162.617,114.921,161.505,115.271"/>
	<path fill="#F5D4B7" d="M127.421,132.678c0.07,0.028,0.132,0.069,0.204,0.097c-0.009-0.009-0.015-0.014-0.02-0.023
		c-0.361-0.375-0.389-0.459-0.515-0.969c-0.137-0.531-0.484-1.182-0.63-1.55c-0.157-0.371-0.855-1.629-1.124-2.444
		c-0.268-0.816-0.389-1.314-0.443-2.132c-0.208-0.617-0.366-1.845-0.271-2.955c0.081-0.982,0.299-2.113,0.922-5.292
		c0.422-2.088-0.239-4.493-0.262-6.72c-0.02-1.717-0.19-5.937-0.143-10.184v-0.014c-0.294,0.1-38.097-8.01-37.831-8.05
		c0.005,0,0.015-0.005,0.023-0.005c0.299-3.13,0.118-7.341-0.051-10.534c0.978-9.591,2.453-20.693,5.842-28.094
		c2.619-5.691,2.269-3.816,3.563-6.498c0.072-0.144,0.167-0.313,0.182-0.512c0.014-0.134-0.096-0.887-0.118-1.126
		c0-0.004,0-0.004,0-0.009c-0.077,0.023-9.29-2.557-20.753,23.752C71.198,80.438,77.583,108,77.583,108l9.979,3.313l6.5-3.531
		l15.375-3.156l6.281,3.063c0,0-1.934,5.881-1.95,5.881c0,0.004-0.005,0.004-0.005,0.004s0.005,0.276-0.027,0.707
		c-0.108,2.113-1.276,4.238-2.25,5.406c-1.313,1.59-3.614,2.7-4.924,3.313c-1.32,0.603-3.445,1.052-3.57,1.073
		c-0.113,0.027-0.82,0.123-0.935,0.141c-0.114,0.009-0.332,0.081-0.635,0.141c-0.315,0.054-0.66,0.063-0.832,0.135
		c-0.086,0.032-0.151,0.074-0.204,0.123c-0.095,0.077-0.146,0.167-0.171,0.267c-0.005,0.009-0.009,0.028-0.009,0.042
		c-0.02,0.095-0.02,0.19-0.005,0.276c0.063,0.313,0.402,0.749,0.442,0.825c0.142,0.271,0.957,1.045,2.292,0.746
		c1.756-0.394,2.891-0.746,4.063-1.124c1.182-0.385,2.749-1.063,2.988-1.272c0.243-0.202,0.893-0.698,0.997-0.755
		c0-0.005,0.004-0.005,0.004-0.005c0.135-0.123,0.263-0.239,0.39-0.348c0.054-0.046,0.108-0.104,0.163-0.146
		c0.013-0.011,0.022-0.02,0.036-0.031c0.207,2.477-2.764,9.914-2.764,9.914s-6.922,2.463-6.483,2.137c0,0-0.008,0-0.008,0.004
		c-0.563,0.276-1.391,0.575-2.229-0.081c0,0-0.815-0.952-1.813-2.215c-0.598-0.755-1.258-1.617-1.855-2.458
		c-0.422-0.593-0.723-1.077-0.945-1.476c-0.431-0.734-0.603-1.205-0.679-1.499c-0.009-0.023-0.019-0.049-0.019-0.067
		c-0.186-0.489-0.341-1.281-0.341-1.281c-1.249-0.155-2.563-0.44-3.776-0.883c0.009,0.004,0.009,0.016,0.019,0.025
		c0.101,0.09-8.573,1.982-8.573,1.982l8.975,36.563c0,0,16.75,26.333,27.25,21.25c1.565-0.758,4.29-6.095,3.167-7.917
		c-1.154-1.867-18.917-31.333-18.917-31.333S127.182,132.572,127.421,132.678z"/>
	<path fill="#F5D4B7" d="M161.468,232.059c3.281,2.178,4.422,2.688,8.009,4.188c1.141,0.538,4.152-0.074,5.44-2.002
		c-0.023,0.01-0.046,0.037-0.064,0.052c-0.01,0.004-0.01,0.004-0.019,0.004c-0.084,0.051-17.861-13.898-20.178-14.723
		c-0.825-0.292-5.365,1.374-4.781,2.213c0.523,0.755,2.718,3.042,2.77,3.13C155.744,227.331,159.642,230.547,161.468,232.059"/>
	<path fill="#F5D4B7" d="M123.667,206.333l-29.729-17.021c0,0,0.867,8.433,0.862,8.565c0.005,0.005,0.005,0.005,0.009,0.011
		c2.169,1.94,5.566,4.264,6.103,4.629c0.198,0.131,1.58,1.043,1.875,1.373c0.365,0.397,4.033,3.006,4.313,3.201
		c0.268,0.182,4.229,2.368,6.629,3.646c0.086-0.047-1.67,1.391-1.643,1.345c-0.844,0.056-1.456,0.444-2.387,0.741
		c-4.167,2.341-1.694,7.211-1.301,10.604c0.797,2.859,1.804,7.823,5.511,8.286c2.822,0.339,9.282-1.427,12.697-2.127
		c0.484-0.856,5.435-1.163,5.374-1.094c0.874-0.261,2.046-0.673,2.401-0.607c0.213,0.037-0.774,1.085-1.346,2.155
		c-0.575,1.08-4.129,11.572-7.438,17.161c-1.11,2.289-0.584,1.344-1.26,3.008v0.005l6.705,1.535l10.833-27.501L123.667,206.333z"/>
	<path fill="#F5D4B7" d="M89.943,227.711c1.154,2.141,4.479,6.632,4.642,6.887c0.162,0.25,0.878,1.021,1.722,1.965
		c0.846,0.94,1.571,1.762,1.775,2.002c0.204,0.232,1.789,1.877,2.198,2.254c0.408,0.375,0.881,1.14,1.224,1.459
		c1.173,1.053,5.492,4.807,5.909,5.117c0.417,0.318,2.477,1.699,2.848,1.75c3.71,0.47,5.531-1.562,5.907-2.164
		c0.38-0.588,0.452-0.842,0.218-1.724c-0.005,0.063-14.322-10.694-23.822-31.382c-0.368-0.801-3.663-4.791-6.688-2.375
		c-2.484,1.984-0.688,6.738-0.688,6.738v0.027C86.131,220.213,88.956,225.885,89.943,227.711"/>
	<path fill="#F5D4B7" d="M61.833,229.75c0.958-3.584-6.987-2.785-7.56-2.915c-2.477,4.009-5.106,17.625-6.445,24.002
		c-0.232,0.718-0.544,1.872-0.911,3.364c1.824,1.854,3.688,3.666,5.604,5.418C53.904,254.238,61.579,230.703,61.833,229.75z"/>
</g>
<g id="Layer_1_1_">
	<g>
		<path fill="#A3080C" d="M292.612,136.589c0,0.009,0.005,0.019,0.005,0.023c0,0,0,0.009,0.005,0.019
			c-0.005-0.009-0.005-0.019-0.005-0.019C292.616,136.608,292.612,136.599,292.612,136.589"/>
		<path d="M274.557,187.911c-4.431-0.981-14.923-3.087-29.066-4.386c-14.136-1.287-25.707-2.391-27.297-2.563
			c-1.456-0.145-1.983-1.479-3.305-2.143c-4.792-2.403-13.848-4.633-19.523-6.631c-1.404-0.486-2.327-1.729-4.265-4.092
			c-1.178-1.441-1.975-2.091-2.983-3.004c-0.604-0.552-1.919-1.664-2.271-1.933c-0.343-0.278-0.584-1.075-0.287-2.623
			c0.297-1.554,1.225-7.614,1.149-14.67c-0.02-1.894,0.814-3.107,1.701-3.55c0.477-0.241,3.582-1.622,3.373-4.674
			c-0.219-3.089-1.173-7.398,1.312-13.463c2.405-5.876,5.408-16.364,5.771-23.283c0.385-7.35-1.461-12.091-4.361-14.658
			c-1.131-0.992-2.466-2.491-1.376-5.691c1.163-3.443,3.275-12.846,1.2-19.066c-0.465-1.381-0.992-1.39-1.309-1.557
			c-0.318-0.162-1.825-1.316-2.391-3.854c-0.761-3.346-3.207-15.238-12.43-27.327c-4.886-6.418-10.104-10.235-12.188-11.773
			c-1.428-0.929-3.935-2.676-6.934-4.271c-4.291-2.269-7.697-4-14.548-6.217c-0.648-0.204-2.115-0.653-4.053-1.17
			c-0.005,0-0.022,0-0.022,0s-5.837-1.562-12.149-2.299c-1.078-0.1-2.553-0.236-4.227-0.35c-6.498-0.38-8.87,0.019-12.249,0.359
			c-0.361,0.035-0.729,0.09-1.092,0.139c-0.674,0.09-1.371,0.194-2.1,0.308c-10.04,1.719-20.254,6.428-25.222,8.797
			c-2.805,1.332-5.286,2.718-7.568,4.018c-0.063,0.04-0.144,0.086-0.186,0.111c-0.588,0.359-1.509,0.872-2.407,1.365
			c-1.404,0.792-2.746,1.534-4.046,2.169c-4.021,1.956-7.558,2.957-10.144,3.854c-0.47,0.176-0.863,0.325-1.168,0.429
			c-1.864,0.726-3.052,1.476-3.27,2.713c-0.398,2.22,2.215,4.28,1.282,7.821c-2.297,8.708-12.126,17.066-13.702,18.03
			c-4.565,2.786-4.28,4.725-4.456,5.717c0,0.922,0.189,1.946,0.714,3.052c1.521,3.223,4.335,5.985,5.712,8.898
			c1.381,2.915,2.168,8.024,1.135,13.996c-0.986,5.775-1.295,7.056-1.808,8.115c-0.51,1.063-1.539,3.128-0.12,5.584
			c1.425,2.463,4.428,4.975,6.312,6.421c1.002,0.774,1.521,1.476,0.778,2.871c-1.224,2.283-0.911,7.666,0.248,10.678
			c1.75,4.595,3.805,8.975,5.712,11.79c1.909,2.813,5.315,7.601,7.318,9.333c1.995,1.743,2.269,4.764,2.23,6.639
			c-0.042,1.865-0.304,7.153,5.13,10.462c2.678,1.646,2.918,1.232,3.9,2.039c0.982,0.793,1.444,1.205,2.123,3.346
			c0.679,2.133,3.768,9.612,8.021,14.877c1.241,1.529,1.93,2.613,2.078,2.864c0.15,0.25,0.381,0.528-0.157,1.788
			c-0.535,1.261-2.682,8.439-4.395,15.859c-0.313,1.361-0.773,3.15-2.48,3.99c-1.71,0.824-5.529,2.934-6.919,3.702
			c-1.399,0.769-2.089,1.187-3.698,3.188c-0.716,0.89-1.237,1.412-1.689,1.955c-0.26,0.314-0.375,0.515-1.735,1.224
			c-1.178,0.612-18.66,6.763-37.198,18.103c-0.459,0.277-0.888,0.523-1.314,0.76c1.092,1.705,2.206,3.394,3.365,5.043
			c4.162-2.104,14.091-7.137,15.652-7.915c1.232-0.621,2.765-0.862,4.004-0.892c0.746-0.014,1.386,0.047,1.793,0.148
			c0.832,0.204,2.264,0.52,3.594,0.824c0.123,0.027,0.246,0.057,0.373,0.084c0.082,0.019,0.163,0.037,0.248,0.061
			c0.549,0.135,1.057,0.256,1.467,0.366c0.023,0.009,0.042,0.009,0.065,0.019c0.199,0.057,0.38,0.106,0.519,0.148
			c1.181,0.389,1.809,2.604,1.17,4.62c-0.113,0.38-0.481,1.659-1.02,3.55c-0.268,0.95-0.575,2.044-0.911,3.258
			c-0.338,1.215-0.707,2.551-1.096,3.969c-1.367,4.967-2.972,10.928-4.353,16.309c3.7,3.373,7.582,6.548,11.616,9.531
			c0.452-3.493,0.927-7.131,1.295-9.777c0.964-6.904,6.479-32.479,8.036-38.294c1.133-4.231,1.722-6.159,3.211-6.826
			c0.447-0.194,0.955-0.491,1.249-0.635c0.294-0.136,0.938-0.292,0.739,0.829c-0.228,1.33-1.376,6.757-3.065,24.367
			c-1.173,12.217-1.201,23.037-0.779,29.545c0.182,2.771,0.229,6.688,4.469,4.99c4.954-1.979,21.842-8.035,30.864-10.815
			c14.527-4.481,41.755-10.466,67.998-14.339l7.338-1.043c0,0,4.296,25.242,5.036,29.617l0.815,4.631l-0.807-4.631
			c-0.746-4.375-5.037-29.617-5.037-29.617c1.028-0.141,2.063-0.273,3.082-0.403c2.35-0.297,4.556-0.574,6.632-0.844l7.665-0.982
			c3.587-0.459,6.664-0.853,9.272-1.194c0,0,4.954,22.902,6.817,31.129c0.13,0.541,0.241,1.029,0.334,1.437l0.917,4.204
			c0.005,0,0.01,0,0.014,0l-0.912-4.204c-1.512-6.507-7.155-32.565-7.155-32.565l7.847-1.011c2.321-0.296,5.278-0.667,6.159-0.709
			c1.844-0.077,2.649-1.12,1.241-1.543c-1.016-0.297-3.364-0.532-4.552-0.561c-0.453-0.005-1.278-0.015-1.771-0.023
			c-1.816-0.032-2.335-0.39-2.734-3.067c-1.131-7.852-5.505-27.314-8.646-37.575c-3.04-9.899-3.791-12.749-4.523-14.929
			c-0.64-1.877,0.6-1.992,1.196-1.965c2.215,0.106,5.283,1.256,6.163,3.151c1.947,4.222,15.266,39.108,20.614,52.114
			c3.374,8.193,7.304,18.056,11.016,26.842c2.378-1.955,4.672-4.014,6.919-6.117c-6.909-15.191-22.291-49.605-30.401-67.021
			c-0.292-0.627-0.686-1.642-0.885-2.238c-0.069-0.199-0.098-0.376-0.098-0.533c0.01-1.111,1.479-1.266,2.206-1.195
			c2.863,0.287,28.872,2.002,35.973,2.68c4.686,0.443,9.361,1.158,12.484,1.715c0.724,0.134,1.361,0.255,1.899,0.361
			c0.667,0.133,1.168,0.239,1.492,0.328c2.317,0.604,6.404,2.221,10.188,4.25c1.565,0.834,3.346,2.049,5.255,3.514
			c0.575-1.633,1.148-3.269,1.669-4.922c-1.362-0.945-2.893-1.91-4.395-2.717C282.157,190.256,278.51,188.791,274.557,187.911
			 M62.776,101.66c-0.707,0.304-1.346,0.385-1.835-0.579c-1.186-2.345-2.087-6.521-2.431-9.234
			c-0.354-2.711-0.896-10.803-0.725-15.224c0.189-4.424-0.675-6.896-2.256-9.012c-1.585-2.113-2.604-3.58-2.993-4.292
			c-0.489-0.888-0.162-1.495,0.773-2.173c0.454-0.318,1.381-0.127,2.098-0.276c1.418-0.285,6.153-2.002,9.681-4.769
			c3.52-2.767,9.13-8.119,12.937-10.179c3.795-2.06,5.48-2.999,9.922-3.532c0.788-0.092,1.97,0.329,0.636,1.344
			c-1.333,1.015-5.608,2.53-10.593,10.052c-3.061,4.602-3.56,7.26-4.529,9.325c-0.974,2.064-1.905,2.648-3.446,4.319
			c-0.75,0.797-2.278,2.472-2.829,4.901c-0.535,2.431-2.748,10.995-1.448,23.948c0.153,1.508,0.774,3.515-0.64,4.245
			C64.225,100.977,63.476,101.361,62.776,101.66 M68.88,119.113c-0.753-0.535-3.831-4.702-5.33-9.333
			c-0.165-0.489-0.345-1.733,0.466-2.088c0.665-0.285,1.548-0.797,2.007-1.015c0.465-0.234,1.624-0.538,1.784,1.133
			c0.162,1.675,0.308,3.649,2.217,8.59c0.346,0.883,0.417,1.159,0.507,1.513C70.778,118.939,69.577,119.609,68.88,119.113
			 M75.15,103.377c-0.204,0.035-2.316,0.29-3.455,0.503c-0.707,0.13-1.435,0.394-1.516-0.287c-0.095-0.774-0.322-1.796-0.389-2.072
			c-0.061-0.287,0.077-0.559,0.419-0.64c0.839-0.194,4.081-0.739,4.394-0.755c0.313-0.004,0.63,0.102,0.766,0.751
			c0.123,0.651,0.279,1.344,0.316,1.626C75.723,102.793,75.804,103.277,75.15,103.377 M76.302,92.799
			c-0.195-0.987-0.468-2.677-0.38-3.729c0.03-0.419,0.157-1.467,0.66-2.032c0.711-0.806,1.656-1.539,2.269-2.035
			c1.115-0.913,0.883-3.276,0.964-4.632c0.246-3.939-0.104-16.378,7.968-28.279c0.311-0.452,0.628-0.869,0.94-1.263
			c0.095-0.118,0.19-0.227,0.285-0.343c0.232-0.273,0.463-0.536,0.702-0.779c0.1-0.109,0.199-0.213,0.304-0.313
			c0.285-0.281,0.575-0.549,0.864-0.792c0.042-0.033,0.079-0.07,0.118-0.104c0.327-0.264,0.655-0.503,0.981-0.73
			c0.118-0.077,0.236-0.153,0.354-0.222c0.225-0.148,0.452-0.281,0.679-0.41c0.129-0.07,0.257-0.142,0.389-0.209
			c0.248-0.127,0.503-0.246,0.755-0.359c0.096-0.04,0.19-0.086,0.285-0.13c0.327-0.137,0.663-0.259,0.996-0.373
			c0.143-0.049,0.281-0.09,0.422-0.134c0.224-0.07,0.447-0.137,0.67-0.199c0.076-0.019,0.146-0.046,0.223-0.065
			c0,0.004,0,0.004,0,0.009c1.643-0.438,3.328-0.684,5.03-0.973c4.805-0.816,10.406-0.053,13.287,0.864
			c2.29,0.725,3.45,1.281,4.216,0.558c0.769-0.72,2.775-2.994,3.626-3.8c0.117-0.114,0.209-0.239,0.272-0.362
			c0.026-0.042,0.04-0.085,0.059-0.127c0.031-0.081,0.058-0.167,0.071-0.252c0.005-0.046,0.015-0.095,0.015-0.146
			c0-0.081-0.01-0.162-0.023-0.248c-0.009-0.042-0.009-0.09-0.03-0.132c-0.031-0.118-0.083-0.232-0.154-0.341
			c-0.187-0.311-0.484-0.588-0.852-0.809c-0.934-0.549-10.312-7.431-22.954-7.739c-12.353-0.309-22.379,4.062-25.038,4.977
			c-0.538,0.181-0.814,0.276-1.13,0.28c-0.313,0.009-1.391-0.359-0.992-1.138c0.438-0.832,1.534-2.113,2.673-3.151
			c1.195-1.077,7.04-6.579,12.813-9.127c1.068-0.468,1.328-0.663,2.012-0.929c0.874-0.331,1.391-2.301-0.54-2.306
			c-1.979-0.014-2.767,0.208-3.812,0.371c-1.047,0.174-1.622-0.294-0.961-1.191c0.653-0.894,1.944-1.886,4.274-3.151
			c5.059-2.757,14.313-5.663,18.688-6.62c5.705-1.249,6.402-1.33,10.188-1.562c3.541-0.204,6.373,0.046,7.713,0.1
			c11.343,0.431,24.406,4.185,34.519,10.844c9.616,7.075,23.455,18.862,26.198,47.959c0.329,3.492,0.098,5.471-0.037,6.345
			c-0.12,0.874-1.112,2.481-1.983,0.656c-2.869-6.013-7.304-13.882-12.309-21.341c-0.297-0.443-0.599-0.656-0.844-0.688
			c-0.103-0.021-0.19-0.004-0.278,0.033c-0.022,0.014-0.037,0.037-0.06,0.053c-0.048,0.037-0.099,0.083-0.136,0.146
			c-0.019,0.044-0.042,0.09-0.056,0.137c-0.023,0.063-0.037,0.134-0.046,0.204c-0.01,0.063-0.02,0.121-0.02,0.186
			c0,0.148,0.01,0.311,0.052,0.489c0.125,0.528,1.719,8.418,1.778,9.517c0.069,1.096-0.468,3.786,3.619,8.75
			c1.669,2.037,3.151,3.777,3.912,6.782c0.75,2.994,1.005,4.275,1.01,4.593c0.011,0.313,0.371,1.205-1.075,1.214
			c-1.437,0.004-6.924-0.394-9.272-0.341c-2.35,0.056-18.569,1.647-24.603,2.929c-6.035,1.284-9.282,2.804-12.381,6.06
			c-0.746,0.783-1.789,1.513-2.026,1.58c-0.224,0.063-1.011,0.046-2.549-0.058c-1.532-0.1-4.189,0.276-5.584,0.906
			c-1.404,0.628-2.405,1.212-4.096,0.523c-2.417-0.978-6.563-5.443-17.328-4.917c-6.48,0.317-9.8,0.494-14.297,1.159
			c-0.262,0.042-0.533,0.081-0.802,0.123c-0.171,0.028-0.348,0.055-0.523,0.085c-0.095,0.014-0.194,0.028-0.294,0.046
			c-1.831,0.299-3.899,0.684-6.452,1.182c-0.354,0.067-0.702,0.139-1.068,0.208C77.175,94.285,76.487,93.839,76.302,92.799
			 M175.427,90.023c0,0.343-0.417,0.698-0.844,0.77c-0.422,0.067-3.318,0.332-3.781,0.366c-0.454,0.032-0.899-0.218-0.937-0.646
			c-0.037-0.422-0.131-1.423-0.157-1.685c-0.047-0.246-0.057-0.589,0.533-0.665c0.343-0.042,3.363-0.313,4.477-0.445
			c0.417-0.049,0.69,0.327,0.7,0.692C175.418,88.776,175.418,89.683,175.427,90.023 M161.881,93.274
			c-0.896-0.63-2.471-1.622-3.425-1.97c-0.658-0.236-0.428-1.059,0.51-1.191c3.263-0.475,5.356-0.475,6.979,0.538
			c1.187,0.735,1.975,2.162,1.612,3.42c-0.427,1.444-0.992,1.131-1.701,1.119C165.147,95.177,162.766,93.907,161.881,93.274
			 M163.767,99.64c-0.574,0.387-2.451,0.042-3.133-0.225c-1.399-0.549-2.392-0.929-4.338-2.164c-1.271-0.806-3.48-1.205-5.413-0.621
			c-1.274,0.385-2.298,0.707-3.42,1.14c-1.124,0.431-1.354-0.593-1.06-1.031c0.29-0.437,2.069-2.52,4.429-3.406
			c0.496-0.19,1.506-0.294,2.002-0.304c1.521-0.044,3.406,0.698,4.834,1.74c1.44,1.05,3.726,2.762,5.228,3.404
			C163.6,98.476,165.129,98.699,163.767,99.64 M116.853,150.293c-5.692,1.993-7.288-0.009-7.795-0.603
			c-0.505-0.593,0.118-1.172,0.721-1.453c1.354-0.63,3.166-2.002,4.081-2.895c0.92-0.892,2.707-3.997,3.997-5.088
			c0.612-0.521,3.918-1.645,6.405-0.459c2.957,1.409,7.561,1.555,10.388,1.187c2.825-0.38,3.902-2.445,4.515-3.664
			c0.611-1.23,2.11-1.68,2.898-2.004c2.169-0.887,5.04-3.863,5.334-4.166c0.294-0.313,1.189-0.753,2.612,0.081
			c2.59,1.522,3.907,3.536,6.312,6.268c2.405,2.734,5.251,3.161,6.085,3.214c0.835,0.053,1.354,1.02,1.392,1.286
			c0.046,0.266-0.649,1.191-1.168,1.58c-0.521,0.389-0.808,1.078-5.413,1.187C134.109,145.334,123.711,147.893,116.853,150.293
			 M148.195,153.074c-1.371,0.709-5.449,2.246-7.479,2.637c-2.037,0.391-8.5,1.701-9.591,1.789
			c-1.358,0.105-3.261-0.302-4.913-1.432c-0.332-0.229-0.783-1.117,0.422-1.295c2.236-0.332,5.846-2.01,18.978-2.679
			c1.411-0.073,2.074-0.102,2.412-0.11C148.362,151.977,149.576,152.365,148.195,153.074 M117.771,182.229
			c-4.586,0.756-16.795-2.826-24.733-22.416c-2.046-5.039,0.198-10.053,2.167-11.067c1.168-0.593,1.8-0.834,2.198-0.934
			c0.432-0.109,2.51-0.38,2.746,1.958c0.187,1.891,3.858,17.417,8.794,22.551c1.217,1.273,2.179,1.195,2.493-0.12
			c0.27-1.205,0.802-2.79,0.957-3.394c0.109-0.436,1.3-1.752,1.975-0.074c1.452,3.561,3.204,8.223,4.355,10.09
			C119.849,180.645,119.487,181.945,117.771,182.229 M118.676,131.007c0.431,0.598,0.698,1.685,0.665,2.165
			c-0.044,0.554-1.938,1.559-3.907-0.651c-1.97-2.215-1.585-5.276-0.77-6.576c1.3-2.074,3.854-1.041,3.607-0.301
			C117.418,128.206,118.238,130.405,118.676,131.007 M104.041,102.32c-1.473-0.048-3.058-0.229-5.747,0.767
			c-3.01,1.112-4.945,2.563-6.345,3.422c-1.439,0.897-2.962,1.282-3.472,1.319c-0.507,0.044-2.355-0.199-1.082-1.537
			c0.338-0.366,1.149-0.642,2.38-1.539c0.88-0.648,1.532-1.11,2.533-1.953c1.784-1.52,5.42-3.717,7.005-3.912
			c1.163-0.139,3.219,0.081,4.442,1.082C105.028,101.014,105.517,102.367,104.041,102.32 M78.714,104.93
			c0.155-0.964,1.209-3.506,3.43-4.243c0.299-0.09,1.406-0.45,2.331-0.688c1.091-0.275,2.264-0.517,2.862-0.625
			c1.607-0.28,1.946,0.943,0.934,1.74c-0.663,0.528-1.722,1.216-2.658,1.974c-1.423,1.164-2.79,2.458-3.847,3.337
			C80.479,107.497,78.394,106.909,78.714,104.93 M86.259,132.611c-0.005-0.004-0.009-0.009-0.009-0.009
			c-0.009-0.014-0.015-0.023-0.023-0.035c-0.398-0.559-0.77-1.147-1.117-1.745c-0.073-0.132-0.146-0.267-0.222-0.399
			c-0.346-0.642-0.67-1.291-0.925-1.974c-0.498-1.323,0.336-1.518,0.892-1.23c0.555,0.297,2.179,1.244,3.914,1.61
			c1.06,0.218,1.689-0.29,1.938-1.054c0.037-0.114,0.085-0.255,0.137-0.408c0.03-0.067,0.053-0.139,0.076-0.213
			c0.014-0.044,0.027-0.09,0.044-0.139c0.022-0.083,0.042-0.164,0.06-0.25c0.015-0.044,0.02-0.09,0.028-0.134
			c0.021-0.088,0.03-0.174,0.04-0.264c0.004-0.044,0.004-0.086,0.009-0.135c0-0.088-0.009-0.174-0.019-0.264
			c-0.005-0.039-0.01-0.081-0.02-0.118c-0.021-0.095-0.058-0.185-0.1-0.275c-0.018-0.028-0.026-0.058-0.04-0.081
			c-0.061-0.104-0.143-0.2-0.241-0.29c-0.129-0.113-0.29-0.218-0.498-0.299c-1.511-0.607-5.795-1.96-9.012-7.943
			c-0.466-0.846-0.025-1.566,0.288-1.819c0.314-0.25,1.434-0.964,1.97-1.295c0.542-0.332,1.276-0.294,2.041,0.234
			c0.735,0.526,2.332,1.689,3.613,1.576c1.19-0.116,1.309-0.604,1.521-0.913c0.839-1.224,3.112-5.67,9.069-5.742
			c2.458-0.032,4.76,0.195,5.584,0.144c0.815-0.053,3.722-0.315,5.434-1.48c1.686-1.159,2.405-0.325,1.431,0.943
			c-0.145,0.19-0.276,0.357-0.399,0.524c-0.048,0.06-0.085,0.113-0.129,0.169c-0.132,0.176-0.246,0.343-0.346,0.503
			c-0.371,0.628-0.417,1.172,0.275,1.918c1.087,1.156,1.37,1.363,1.723,1.636c0.157,0.125,0.345,0.199,0.564,0.204
			c0.09,0,0.19-0.019,0.29-0.046c0.042-0.014,0.083-0.014,0.132-0.032c0.15-0.067,0.309-0.158,0.484-0.306
			c0.621-0.549,1.038-0.876,1.58-1.576c0.403-0.517,0.744,0.004,0.644,0.813c-0.079,0.63,0.204,4.674-4.203,9.646
			c-0.144,0.167-0.479,0.443-0.896,0.797c-0.1,0.081-0.194,0.162-0.303,0.257c-0.054,0.046-0.109,0.1-0.163,0.146
			c-0.138,0.12-0.275,0.248-0.417,0.38c-0.113,0.104-0.228,0.229-0.343,0.343c-0.118,0.118-0.232,0.227-0.351,0.354
			c-0.072,0.077-0.144,0.167-0.218,0.253c-0.148,0.167-0.299,0.336-0.447,0.521c-0.046,0.063-0.09,0.127-0.132,0.186
			c-0.167,0.218-0.329,0.438-0.475,0.669c-0.187,0.299-0.361,0.612-0.513,0.938c-1.226,2.616-1.067,3.479-1.2,4.433
			c-0.12,0.945-0.854,1.321-1.68,1.703c-0.498,0.229-1.818,0.992-3.281,2.099l0.008-0.007c-0.438,0.329-0.884,0.695-1.326,1.073
			c-0.085,0.077-0.167,0.148-0.246,0.225c-0.442,0.389-0.878,0.802-1.281,1.232c-0.267,0.281-0.542,0.528-0.818,0.751
			c-0.095,0.074-0.183,0.132-0.277,0.199c-0.194,0.141-0.395,0.273-0.593,0.389c-0.104,0.061-0.216,0.118-0.319,0.165
			c-0.2,0.1-0.399,0.181-0.604,0.252c-0.108,0.037-0.213,0.082-0.321,0.109c-0.054,0.014-0.104,0.037-0.153,0.053
			c-0.127,0.028-0.255,0.032-0.382,0.051c-0.158,0.028-0.315,0.058-0.476,0.067c-0.176,0.009-0.356,0-0.537-0.009
			c-0.155-0.017-0.313-0.017-0.464-0.035c-0.186-0.028-0.37-0.086-0.552-0.137c-0.154-0.04-0.308-0.072-0.465-0.127
			c-0.174-0.067-0.346-0.163-0.521-0.248c-0.167-0.081-0.327-0.146-0.489-0.246c-0.015-0.012-0.032-0.016-0.046-0.025
			c-0.294-0.186-0.594-0.403-0.894-0.649c-0.773-0.665-1.62-1.439-2.458-2.283c-0.022-0.025-0.044-0.048-0.066-0.067
			c-0.023-0.023-0.046-0.051-0.067-0.077c-0.431-0.436-0.862-0.901-1.281-1.386C87.654,134.367,86.676,133.19,86.259,132.611
			 M139.225,225.523c-0.271,1.408-1.42,6.153-5.638,15.918c-0.285,0.658-0.562,1.293-0.832,1.906
			c-0.065,0.144-0.132,0.281-0.195,0.426c-0.104,0.235-0.213,0.473-0.316,0.694c-0.01,0.019-0.015,0.037-0.023,0.056
			c-0.153,0.34-0.308,0.658-0.466,0.975c0,0-0.009,0.009-0.009,0.02c-0.02,0.037-0.042,0.078-0.067,0.119
			c-0.056,0.111-0.114,0.219-0.169,0.324c-0.076,0.141-0.148,0.292-0.229,0.428c0,0.014-0.005,0.019-0.009,0.026
			c-0.019,0.028-0.037,0.056-0.056,0.093c-0.072,0.125-0.176,0.307-0.181,0.315c-0.01,0.019-0.023,0.036-0.033,0.056c0,0,0,0,0,0.01
			c-0.054,0.078-0.101,0.157-0.148,0.231c-0.014,0.026-0.027,0.056-0.042,0.078c-0.009,0.01-0.016,0.022-0.03,0.036
			c-0.064,0.106-0.132,0.205-0.198,0.315c-0.015,0.015-0.028,0.027-0.037,0.042c-0.076,0.111-0.153,0.219-0.228,0.324
			c-0.004,0-0.016,0.02-0.029,0.027c-0.064,0.089-0.133,0.177-0.199,0.26c-0.02,0.02-0.032,0.037-0.046,0.047
			c-0.076,0.102-0.157,0.182-0.228,0.27c-0.011,0-0.021,0.014-0.029,0.026c-0.042,0.042-0.091,0.084-0.133,0.13h-0.004
			c-0.022,0.028-0.049,0.051-0.077,0.074c-0.014,0.014-0.036,0.027-0.051,0.047c-0.081,0.073-0.158,0.145-0.239,0.199
			c-0.009,0.009-0.014,0.014-0.027,0.02c-0.072,0.06-0.148,0.109-0.224,0.156c-0.021,0.014-0.038,0.027-0.058,0.037
			c-0.014,0.009-0.028,0.014-0.037,0.02c-0.016,0.014-0.03,0.022-0.044,0.022c-0.056,0.037-0.114,0.069-0.172,0.103
			c0,0-0.009,0-0.019,0.004c-0.074,0.041-0.155,0.069-0.241,0.098c-0.02,0.01-0.04,0.02-0.063,0.027
			c-0.09,0.027-0.176,0.052-0.271,0.074c-0.876,0.189-1.813,0.324-2.361,0.418c-0.081,0.008-0.642,0.102-0.688,0.119
			c-0.229,0.033-0.476,0.07-0.741,0.116c0,0,0,0,0-0.005c-6.331,1.066-23.552,4.031-31.54,5.645
			c-5.299,1.058-4.778-1.611-6.108-6.428c-0.559-2.025-2.527-19.941-1.504-31.186c0.343-3.734,0.507-4.828,1.177-5.24
			c0.669-0.413,1.694-1.08,2.002-1.168c0.3-0.079,1.213-0.32,1.639,0.449c0.417,0.76,8.151,16.451,13.206,22.134
			c4.485,5.065,7.638,8.739,11.419,11.206c0.25,0.167,0.465,0.27,0.66,0.334c0.019,0.009,0.042,0.021,0.064,0.027
			c0.09,0.027,0.171,0.041,0.248,0.051c0.076,0.01,0.146,0.005,0.213,0c0.02-0.004,0.037-0.004,0.057-0.01
			c0.125-0.027,0.225-0.088,0.301-0.166c0.009-0.01,0.019-0.023,0.033-0.037c0.071-0.088,0.123-0.199,0.149-0.319
			c0.005-0.019,0.005-0.042,0.005-0.062c0.104-0.584-0.174-1.469-0.729-2.07c-0.834-0.899-4.289-4.454-8.84-10.928
			c-5.887-8.356-9.876-20.688-10.949-24.638c-0.702-2.586-1.096-6.664-1.031-9.918c-0.004,0-0.009,0-0.009,0
			c0.005-0.144,0.009-0.269,0.017-0.407c0.004-0.103,0.009-0.203,0.015-0.311c0.009-0.219,0.019-0.436,0.031-0.645
			c0.023-0.307,0.046-0.604,0.082-0.881c0.015-0.121,0.032-0.228,0.046-0.344c0.03-0.193,0.059-0.38,0.087-0.552
			c0.019-0.103,0.039-0.199,0.063-0.292c0.051-0.25,0.109-0.481,0.181-0.682c0.916-2.617,1.681-2.336,2.491-1.459
			c0.812,0.885,8.12,7.517,20.169,12.916c2.559,1.145,4.085,1.672,4.434,2.049c0.345,0.365,0.896,1.14-0.199,1.398
			c-1.082,0.256-4.296,0.37-7.661,1.7c-0.195,0.079-0.375,0.158-0.54,0.231c-1.177,0.528-1.729,1.058-1.979,1.627
			c-0.049,0.11-0.086,0.228-0.113,0.344c-0.021,0.078-0.04,0.171-0.049,0.255c-0.015,0.129-0.02,0.259-0.015,0.389
			c0,0.085-0.005,0.173,0.004,0.261c0.01,0.166,0.028,0.334,0.046,0.51c0.04,0.297,0.081,0.603,0.111,0.939
			c0.178,1.826,0.494,3.129,0.726,5.571c0.227,2.451,0.086,4.666,1.281,5.7c1.191,1.02,2.817,1.626,7.16,0.783
			c4.12-0.803,5.492-1.154,5.98-1.168c0.479-0.015,1.636-0.209,0.929,1.14c-0.067,0.13-0.155,0.287-0.259,0.478
			c-0.95,1.691-3.251,5.502-4.035,8.041c-0.869,2.799-1.045,3.573-1.121,4.051c-0.07,0.481,0.262,1.408,1.117,0.371
			c0.853-1.039,2.542-4.908,6.785-9.834c0.569-0.658,1.091-1.237,1.581-1.771c0.004,0,0.009-0.01,0.019-0.02
			c0.384-0.412,0.741-0.787,1.082-1.131c0.095-0.098,0.185-0.186,0.276-0.272c0.29-0.282,0.561-0.542,0.814-0.788
			c0.067-0.057,0.14-0.125,0.199-0.182c0.633-0.573,1.177-1.015,1.652-1.361c0.048-0.027,0.09-0.057,0.134-0.088
			c0.183-0.135,0.364-0.256,0.531-0.357c0.046-0.027,0.095-0.06,0.141-0.093c0.167-0.103,0.325-0.188,0.471-0.269
			c0.023-0.02,0.059-0.037,0.085-0.051c0.02-0.006,0.033-0.02,0.046-0.027c0.172-0.079,0.315-0.163,0.461-0.229
			C139.262,222.836,139.584,223.646,139.225,225.523 M146.249,247.083c-0.68,0.157-3.617,0.603-4.071,0.61
			c-0.447,0.011-0.827-0.407-0.637-0.728c0.189-0.315,2.211-2.946,3.322-7.526c0.187-0.746,0.654-1.265,0.957-0.193
			c0.234,0.783,1.141,4.676,1.35,6.141C147.201,245.643,147.358,246.823,146.249,247.083 M147.481,209.738
			c-1.93,0.724-4.076-1.445-5.813-2.604c-3.904-2.669-7.496-5.241-10.443-8.842c-4.514-5.511-4.092-9.353-2.781-16.472
			c0.911-5.057-0.741-9.812-1.101-10.482c-0.357-0.672,0.046-1.354,1.114-0.854c1.067,0.502,2.088,2.059,3.184,3.394
			c1.087,1.335,1.328,0.386,1.418-0.521c0.208-2.094-0.264-3.771-0.525-4.744h-0.006c-0.014-0.047-0.026-0.106-0.036-0.157
			c-0.153-0.58-0.693-1.873-1.829-2.108c-1.522-0.32-3.018-0.455-3.83-1.039c-0.378-0.272-0.808-0.828-0.382-1.236
			c0.775-0.751,1.901-1.747,2.971-2.113c1.455-0.5,2.854-1.261,4.697-1.251c12.438,0.079,15.792-2.799,20.547-4.772
			c0.932-0.391,1.491-0.565,2.289-0.315c0.802,0.241,2.976,1.058,3.525,2.024c0.552,0.97,0.649,5.011,1.711,7.926
			c1.047,2.924,2.831-0.106,3.222-1.357c0.375-1.257,0.522-4.245,0.542-5.001c0.019-0.756,0.24-3.944,1.241-5.019
			c1.988-2.123,2.456-4.635,2.697-5.617c0.213-0.881,0.38-3.344-0.056-6.843c-0.047-0.431-0.111-0.883-0.187-1.346
			c-0.672-4.22-1.521-4.577-2.665-5.344c-1.148-0.765-2.35-0.433-5.272-2.435c-2.614-1.798-4.987-4.94-6.966-6.857
			c-1.971-1.914-5.088-3.839-8.376-4.178c-0.208-0.019-0.39-0.023-0.557-0.023c-0.014,0-0.022,0-0.037,0
			c-0.146,0.009-0.284,0.019-0.402,0.044c-0.023,0.004-0.037,0.014-0.063,0.019c-0.104,0.019-0.199,0.046-0.28,0.079
			c-0.022,0.016-0.042,0.03-0.069,0.04c-0.063,0.037-0.125,0.072-0.176,0.113c-0.023,0.023-0.042,0.046-0.067,0.072
			c-0.037,0.037-0.074,0.077-0.1,0.123c-0.023,0.032-0.037,0.072-0.057,0.109c-0.014,0.04-0.035,0.072-0.044,0.109
			c-0.019,0.058-0.028,0.114-0.037,0.176c0,0.023-0.004,0.042-0.004,0.067c-0.005,0.081-0.005,0.165,0.004,0.25h-0.004
			c0.067,0.813,0.653,1.805,0.802,2.213c0.208,0.554,0.734,2.248-0.199,3.235c-0.94,0.987-6.436,5.904-11.583,5.781
			c-2.326-0.053-4.267-0.531-5.896-1.226c0.009,0.009,0.015,0.016,0.02,0.025c-0.069-0.03-0.127-0.067-0.199-0.1
			c-0.389-0.171-0.758-0.357-1.11-0.552c-0.056-0.032-0.123-0.06-0.186-0.095c-0.395-0.227-0.757-0.466-1.102-0.711
			c-0.104-0.077-0.204-0.153-0.304-0.227c-0.262-0.199-0.512-0.403-0.746-0.612c-0.069-0.063-0.149-0.125-0.218-0.186
			c-0.28-0.267-0.54-0.528-0.783-0.788c-0.06-0.072-0.113-0.139-0.174-0.204c-0.186-0.215-0.356-0.429-0.52-0.637
			c-0.051-0.067-0.1-0.127-0.146-0.195c-0.185-0.262-0.356-0.512-0.502-0.753c-0.02-0.03-0.03-0.053-0.049-0.081
			c-0.127-0.22-0.236-0.429-0.332-0.619c-0.023-0.051-0.048-0.097-0.072-0.151c-0.095-0.204-0.176-0.403-0.231-0.57
			c-0.751-2.259,1.114-7.598,1.048-11.421c-0.023-1.675-0.369-4.889-0.626-7.119c-0.256-2.231,0.92-5.234,1.467-5.962
			c0.123-0.16,0.308-0.313,0.521-0.463c0.054-0.04,0.114-0.072,0.171-0.109c0.199-0.13,0.427-0.253,0.685-0.366
			c0.037-0.019,0.072-0.037,0.114-0.058c0.252-0.104,0.521-0.213,0.814-0.308v0.014c0.48-0.165,0.997-0.318,1.563-0.445
			c1.833-0.408,3.976,0.499,4.527,2.012c1.916,5.278,4.039,6.393,4.75,6.738c0.722,0.352,1.856-0.693,2.301-1.078
			c0.447-0.373,1.524-1.789,1.046-2.41c-0.737-0.943-1.141-1.522-1.354-2.111c-0.361-0.996,0.941-1.017,1.249-0.878
			c3.923,1.662,5.802,2.011,9.6,1.884c3.791-0.118,9.688-2.616,10.418-2.63c0.595-0.014,1.771,0.352,2.212,0.964
			c0.073,0.104,0.172,0.252,0.265,0.398c0.38,0.565,0.89,1.323,1.344,1.481c0.02,0.004,0.032,0.014,0.051,0.019
			c0.562,0.139,1.9,0.037,2.609,0.067c0.959,0.033,2.623-0.299,2.576,1.462c-0.106,4.702-3.823,7.635-4.161,7.92
			c-0.13,0.118-0.204,0.269-0.271,0.422c-0.019,0.042-0.055,0.086-0.063,0.132c-0.02,0.086-0.037,0.172-0.037,0.253
			c0,0.085,0.01,0.162,0.028,0.227c0.088,0.28,0.49,1.295,0.662,1.571c0.061,0.1,0.135,0.195,0.23,0.285
			c0.023,0.023,0.062,0.042,0.089,0.067c0.074,0.056,0.147,0.109,0.231,0.146c0.042,0.023,0.098,0.028,0.147,0.044
			c0.078,0.019,0.167,0.037,0.256,0.032c0.056,0,0.125-0.019,0.181-0.032c0.139-0.03,0.269-0.058,0.417-0.148
			c3.15-1.884,4.431-4.111,5.802-6.91c1.367-2.786,2.086-11.987,2.165-13.496c0.078-1.52,0.556-2.454,1.302-3.065
			c0.741-0.614,4.421-2.971,4.94-3.091c0.528-0.123,1.131-0.174,1.724,1.198c0.604,1.381,1.919,9.864,2.169,11.168
			c0.283,1.386,1.001,1.221,1.363,0.955c0.787-0.575,1.357-1.282,2.058-2.486c0.724-1.205,0.194-2.867-0.51-3.641
			c-0.694-0.778-1.794-2.021-1.326-3.255c1.066-2.804,3.306-2.663,3.907-2.563c0.589,0.1,2.859,1.122,3.269,7.232
			c0.593,9.051-3.098,18.41-3.978,20.783c-1.946,5.276-2.354,8.868-2.655,10.578c-0.292,1.703-1.585,1.395-1.896,1.119
			c-0.315-0.275-0.719-1.594-0.918-1.789c-0.204-0.195-0.714-0.095-1.048,1.358c-0.333,1.45-1.445,3.464-2.096,4.56
			c-0.436,0.711-0.355,1.731-0.25,2.523c0.195,1.539,0.996,7.427,0.751,14.121c-0.444,11.91-4.426,19.412-7.396,23.339
			c-6.988,9.241-13.542,13.103-14.329,13.651c-1.011,0.705-2.702,0.595-3.268,0.408c-0.575-0.162-1.08-0.756-2.155-1.523
			c-0.088-0.069-0.176-0.106-0.25-0.145c-0.854-0.395-0.982,0.807-0.974,1.121c0.01,0.334,0.527,1.571,0.819,2.771
			c0.558,2.262-0.699,4.996-1.992,7.154c-1.845,3.051-3.904,6.405-3.474,10.09C147.757,209.393,147.757,209.632,147.481,209.738
			 M206.699,213.261c1.053,6.054,2.238,13.431,3.577,22.474c0.069,0.477,0.12,0.885,0.157,1.265c0.01,0.047,0.02,0.099,0.02,0.144
			c0.037,0.357,0.056,0.683,0.056,0.95c0,0.028-0.004,0.052-0.004,0.074c0,0.12,0,0.25-0.01,0.353
			c-0.015,0.103-0.032,0.189-0.052,0.278c0,0.036-0.01,0.073-0.01,0.106c-0.046,0.185-0.109,0.343-0.193,0.477
			c-0.01,0.02-0.027,0.037-0.047,0.064c-0.073,0.103-0.167,0.195-0.265,0.27c-0.032,0.023-0.061,0.047-0.098,0.074
			c-0.125,0.079-0.265,0.148-0.437,0.204c-0.041,0.019-0.102,0.026-0.157,0.046c-0.13,0.042-0.272,0.079-0.427,0.121
			c-0.097,0.02-0.193,0.037-0.292,0.064c-0.203,0.041-0.421,0.084-0.652,0.129c-0.427,0.088-1.053,0.177-1.487,0.213
			c-0.751,0.074-1.627,0.148-2.581,0.232c-9.223,0.844-27.273,2.674-41.733,4.495c-0.272,0.026-0.551,0.056-0.848,0.103
			c-1.126,0.158-1.779-0.022-1.868-1.127c-0.069-1.015-1.761-11.053-6.872-19.604c-0.469-0.788-0.964-1.566-1.488-2.32
			c-0.583-0.84,0.283-1.479,1.108-1.188c2.316,0.814,8.73,3.749,17.879,10.297c2.336,1.669,2.943,2.188,3.467,2.633
			c0.069,0.061,0.177,0.12,0.273,0.167c0.037,0.019,0.079,0.027,0.125,0.046c0.063,0.023,0.144,0.047,0.223,0.065
			c0.042,0.009,0.083,0.019,0.125,0.022c0.088,0.01,0.176,0.014,0.255,0.01c0.037,0,0.069,0,0.099,0
			c0.105-0.015,0.208-0.047,0.292-0.099c0.213-0.134,0.311-0.394,0.144-0.843c-0.569-1.604-3.629-4.755-11.456-12.018
			c-1.117-1.033-1.136-1.469,0.022-1.59c1.154-0.11,4.292,0.032,5.96-0.037c1.673-0.073,5.408-0.177,4.676-5.065
			c-0.561-3.786-1.001-7.702-1.07-8.874c-0.063-1.168-0.269-3.352-3.003-3.661c-2.716-0.312-7.271,0.319-11.357,1.751
			c-1.127,0.391-1.525-0.129-0.691-0.89c0.83-0.755,8.004-5.423,14.117-12.443c6.72-7.729,9.676-13.416,11.354-18.588
			c0.303-0.918,0.69-0.606,1.066-0.396c0.371,0.219,2.892,2.258,3.786,7.271c0.876,5.023,2.614,11.994-0.449,30.3
			c-1.683,10.028-3.74,15.951-4.218,17.365c-0.481,1.399,0.343,2.188,1.27,0.933c2.16-2.949,5.016-11.123,7.426-20.521
			c2.373-9.273,3.233-17.223,3.597-22.319v-0.005c0.037-0.468,0.069-0.908,0.092-1.33l0.015-0.171
			c0.02-0.412,0.041-0.808,0.069-1.163c0-0.218,0.027-0.39,0.064-0.547c0.01-0.047,0.027-0.084,0.042-0.125
			c0.022-0.07,0.042-0.148,0.068-0.204c0-0.01,0.011-0.01,0.011-0.019c0.046-0.088,0.102-0.162,0.151-0.219
			c0.016-0.019,0.028-0.037,0.042-0.047c0.046-0.041,0.088-0.06,0.13-0.082c0.032-0.015,0.064-0.037,0.094-0.048
			c0.026-0.004,0.046-0.004,0.073-0.009c0.052-0.01,0.103-0.02,0.148-0.02c0.019,0,0.037,0,0.06,0.01c0.023,0,0.053,0,0.07,0
			s0.027,0.015,0.036,0.015c0.186,0.032,0.356,0.106,0.487,0.162c0.478,0.187,2.591,0.797,3.692,5.867
			c0.046,0.204,0.093,0.426,0.148,0.647c0.009,0.074,0.026,0.157,0.046,0.231c0.052,0.204,0.098,0.408,0.147,0.631l0.011,0.037
			C202.617,192.271,204.271,199.168,206.699,213.261"/>
		<polygon points="167.706,221.898 168.734,221.898 168.734,224.521 169.355,224.521 169.355,221.898 170.38,221.898 
			170.38,221.371 167.706,221.371 		"/>
		<polygon points="172.609,223.623 171.816,221.371 170.922,221.371 170.922,224.521 171.497,224.521 171.497,221.986 
			172.373,224.521 172.878,224.521 173.74,221.986 173.74,224.521 174.314,224.521 174.314,221.371 173.42,221.371 		"/>
	</g>
</g>
</svg>
